<svg width="12" height="12" viewBox="0 0 12 12" fill="none" xmlns="http://www.w3.org/2000/svg">
<path fill-rule="evenodd" clip-rule="evenodd" d="M5.5286 0.195262C5.78894 -0.0650874 6.21106 -0.0650874 6.4714 0.195262L11.8047 5.5286C12.0651 5.78895 12.0651 6.21105 11.8047 6.4714L6.4714 11.8047C6.21106 12.0651 5.78894 12.0651 5.5286 11.8047C5.26825 11.5444 5.26825 11.1223 5.5286 10.8619L9.72386 6.66667H0.666667C0.298477 6.66667 0 6.36819 0 6C0 5.63181 0.298477 5.33333 0.666667 5.33333H9.72386L5.5286 1.13807C5.26825 0.877722 5.26825 0.455612 5.5286 0.195262Z" fill="url(#paint0_linear_434_22454)"/>
<defs>
<linearGradient id="paint0_linear_434_22454" x1="0" y1="6" x2="15" y2="6" gradientUnits="userSpaceOnUse">
<stop stop-color="#C74EC7"/>
<stop offset="1" stop-color="#7774FA"/>
</linearGradient>
</defs>
</svg>
