<svg width="31" height="21" viewBox="0 0 31 21" fill="none" xmlns="http://www.w3.org/2000/svg">
<path d="M27.5352 20.6316H2.61862C1.19028 20.6316 0 19.4413 0 18.013V2.61862C0 1.19028 1.19028 0 2.61862 0H27.5352C28.9636 0 30.1538 1.19028 30.1538 2.61862V18.013C30.1538 19.4413 28.9636 20.6316 27.5352 20.6316ZM2.61862 1.58704C2.06316 1.58704 1.58704 2.06316 1.58704 2.61862V18.013C1.58704 18.5684 2.06316 19.0445 2.61862 19.0445H27.5352C28.0907 19.0445 28.5668 18.5684 28.5668 18.013V2.61862C28.5668 2.06316 28.0907 1.58704 27.5352 1.58704H2.61862Z" fill="white"/>
<path d="M21.822 13.0927H4.7613C4.32486 13.0927 3.96777 12.7356 3.96777 12.2991C3.96777 11.8627 4.32486 11.5056 4.7613 11.5056H21.822C22.2585 11.5056 22.6155 11.8627 22.6155 12.2991C22.6155 12.7356 22.2585 13.0927 21.822 13.0927Z" fill="white"/>
<path d="M12.6965 16.6639H4.7613C4.32486 16.6639 3.96777 16.3069 3.96777 15.8704C3.96777 15.434 4.32486 15.0769 4.7613 15.0769H12.6965C13.133 15.0769 13.49 15.434 13.49 15.8704C13.49 16.3069 13.133 16.6639 12.6965 16.6639Z" fill="white"/>
<path d="M24.9962 16.6639H21.4254C20.9889 16.6639 20.6318 16.3069 20.6318 15.8704C20.6318 15.434 20.9889 15.0769 21.4254 15.0769H24.9962C25.4326 15.0769 25.7897 15.434 25.7897 15.8704C25.7897 16.3069 25.4326 16.6639 24.9962 16.6639Z" fill="white"/>
<path d="M8.72891 9.52182H4.7613C4.32486 9.52182 3.96777 9.16473 3.96777 8.7283V4.76069C3.96777 4.32425 4.32486 3.96716 4.7613 3.96716H8.72891C9.16534 3.96716 9.52243 4.32425 9.52243 4.76069V8.7283C9.52243 9.16473 9.16534 9.52182 8.72891 9.52182ZM5.55482 7.93477H7.93538V5.55421H5.55482V7.93477Z" fill="white"/>
<path d="M24.9961 5.55421H20.2349C19.7985 5.55421 19.4414 5.19712 19.4414 4.76069C19.4414 4.32425 19.7985 3.96716 20.2349 3.96716H24.9961C25.4325 3.96716 25.7896 4.32425 25.7896 4.76069C25.7896 5.19712 25.4325 5.55421 24.9961 5.55421Z" fill="white"/>
</svg>
