<svg width="16" height="16" viewBox="0 0 16 16" fill="none" xmlns="http://www.w3.org/2000/svg">
<path d="M8 16C12.4183 16 16 12.4183 16 8C16 3.58172 12.4183 0 8 0C3.58172 0 0 3.58172 0 8C0 9.27975 0.300492 10.4893 0.834768 11.562C0.976749 11.847 1.02401 12.1729 0.941694 12.4805L0.465208 14.2613C0.258363 15.0344 0.965611 15.7416 1.73868 15.5348L3.51951 15.0583C3.82715 14.976 4.15297 15.0232 4.43802 15.1652C5.51069 15.6995 6.72025 16 8 16Z" fill="#E8EAED"/>
<path d="M10.4 8C10.4 8.44183 10.7582 8.8 11.2 8.8C11.6418 8.8 12 8.44183 12 8C12 7.55817 11.6418 7.2 11.2 7.2C10.7582 7.2 10.4 7.55817 10.4 8Z" fill="white"/>
<path d="M7.2 8C7.2 8.44183 7.55817 8.8 8 8.8C8.44183 8.8 8.8 8.44183 8.8 8C8.8 7.55817 8.44183 7.2 8 7.2C7.55817 7.2 7.2 7.55817 7.2 8Z" fill="white"/>
<path d="M4 8C4 8.44183 4.35817 8.8 4.8 8.8C5.24183 8.8 5.6 8.44183 5.6 8C5.6 7.55817 5.24183 7.2 4.8 7.2C4.35817 7.2 4 7.55817 4 8Z" fill="white"/>
</svg>
