<svg width="20" height="20" viewBox="0 0 20 20" fill="none" xmlns="http://www.w3.org/2000/svg">
<circle cx="10" cy="10" r="9.25" fill="black" stroke="white" stroke-width="1.5"/>
<path d="M14.6883 7.73707L8.68829 13.2371C8.49832 13.4113 8.24844 13.5054 7.99076 13.4998C7.73309 13.4942 7.48752 13.3893 7.30529 13.2071L4.30529 10.2071C4.20978 10.1148 4.1336 10.0045 4.08119 9.88248C4.02878 9.76047 4.00119 9.62925 4.00004 9.49647C3.99888 9.36369 4.02419 9.23202 4.07447 9.10912C4.12475 8.98622 4.199 8.87457 4.29289 8.78068C4.38679 8.68679 4.49844 8.61253 4.62133 8.56225C4.74423 8.51197 4.87591 8.48667 5.00869 8.48782C5.14147 8.48898 5.27269 8.51656 5.39469 8.56897C5.5167 8.62138 5.62704 8.69756 5.71929 8.79307L8.04229 11.1161L13.3363 6.26307C13.5318 6.08379 13.7904 5.98949 14.0554 6.00093C14.3204 6.01237 14.57 6.12861 14.7493 6.32407C14.9286 6.51954 15.0229 6.77822 15.0114 7.04321C15 7.3082 14.8838 7.55779 14.6883 7.73707Z" fill="white"/>
</svg>
