<svg width="15" height="16" viewBox="0 0 15 16" fill="none" xmlns="http://www.w3.org/2000/svg">
<path d="M1.32312 4.62241C1.52528 4.31918 1.94643 4.25179 2.23281 4.45395C2.53604 4.6561 2.62027 5.0941 2.40127 5.39733C1.62635 6.49232 1.22204 7.8737 1.35681 9.33931C1.6095 12.1189 3.85003 14.3594 6.62964 14.629C10.3021 14.9827 13.4018 11.9336 13.0817 8.26116C12.829 5.2794 10.3189 2.95465 7.33717 2.88726V3.96541C7.33717 4.35287 6.89917 4.58872 6.5791 4.38656L3.79949 2.65142C3.47942 2.44926 3.47942 1.99442 3.79949 1.80911L6.5791 0.0739671C6.91602 -0.128186 7.33717 0.107659 7.33717 0.495119V1.57327C10.9422 1.62381 13.9408 4.28549 14.3788 7.89055C14.9179 12.3716 11.3128 16.1788 6.88233 15.9935C3.20988 15.825 0.194434 12.8433 0.00912762 9.17085C-0.0751028 7.46939 0.43028 5.90271 1.32312 4.62241Z" fill="url(#paint0_linear_323_2923)"/>
<defs>
<linearGradient id="paint0_linear_323_2923" x1="9.8445e-07" y1="8" x2="14.5" y2="8" gradientUnits="userSpaceOnUse">
<stop stop-color="#C74EC7"/>
<stop offset="1" stop-color="#7575FB"/>
</linearGradient>
</defs>
</svg>
