<svg width="12" height="13" viewBox="0 0 12 13" fill="none" xmlns="http://www.w3.org/2000/svg">
<path d="M4.73516 7.87037C4.56775 7.69072 4.43475 7.477 4.34381 7.2415C4.25286 7.00599 4.20576 6.75335 4.20521 6.49807C4.20465 6.24279 4.25065 5.9899 4.34057 5.75394C4.4305 5.51798 4.56256 5.30358 4.72919 5.12307C4.89581 4.94256 5.09371 4.79949 5.31153 4.70208C5.52934 4.60466 5.76277 4.55482 5.99841 4.55543C6.23406 4.55603 6.46727 4.60705 6.68466 4.70558C6.90204 4.8041 7.09932 4.94818 7.26516 5.12954L4.73516 7.87037Z" stroke="#333335" stroke-linecap="round" stroke-linejoin="round"/>
<path d="M8.90758 3.12551C8.07628 2.42215 7.0548 2.03393 6.00008 2.02051C4.23508 2.02051 2.59008 3.14717 1.44508 5.09717C1.22378 5.52687 1.1076 6.01075 1.1076 6.5028C1.1076 6.99485 1.22378 7.47873 1.44508 7.90842C1.81702 8.54932 2.27352 9.12781 2.80008 9.62551" stroke="#333335" stroke-linecap="round" stroke-linejoin="round"/>
<path d="M4.20996 10.5787C4.77593 10.8405 5.38457 10.9768 5.99996 10.9796C7.76496 10.9796 9.40996 9.85291 10.555 7.90291C10.7763 7.47321 10.8924 6.98934 10.8924 6.49729C10.8924 6.00523 10.7763 5.52136 10.555 5.09166C10.3921 4.81575 10.2152 4.54992 10.025 4.29541" stroke="#333335" stroke-linecap="round" stroke-linejoin="round"/>
<path d="M7.75497 6.87915C7.68724 7.257 7.51681 7.6043 7.26558 7.87648C7.01434 8.14865 6.69376 8.33327 6.34497 8.40665" stroke="#333335" stroke-linecap="round" stroke-linejoin="round"/>
<path d="M4.73512 7.87036L1.00012 11.9166" stroke="#333335" stroke-linecap="round" stroke-linejoin="round"/>
<path d="M11.0001 1.08325L7.26508 5.1295" stroke="#333335" stroke-linecap="round" stroke-linejoin="round"/>
</svg>
