<svg width="73" height="73" viewBox="0 0 73 73" fill="none" xmlns="http://www.w3.org/2000/svg">
<path d="M70.7091 34.3305C70.223 34.3316 69.7524 34.5023 69.3787 34.8132C69.005 35.124 68.7516 35.5555 68.6619 36.0333H56.6078V30.8623H63.059C63.1546 31.373 63.4374 31.8296 63.8521 32.1426C64.2668 32.4557 64.7834 32.6026 65.3007 32.5546C65.818 32.5066 66.2987 32.2672 66.6487 31.8832C66.9987 31.4993 67.1928 30.9984 67.1928 30.4789C67.1928 29.9593 66.9987 29.4585 66.6487 29.0745C66.2987 28.6906 65.818 28.4511 65.3007 28.4031C64.7834 28.3551 64.2668 28.502 63.8521 28.8151C63.4374 29.1281 63.1546 29.5847 63.059 30.0954H56.6078V25.6412H63.7414L66.1297 23.2498C66.4423 23.4649 66.8077 23.5905 67.1864 23.613C67.5652 23.6355 67.9428 23.554 68.2786 23.3774C68.6144 23.2008 68.8956 22.9358 69.0917 22.611C69.2878 22.2862 69.3914 21.9139 69.3913 21.5345C69.4021 21.2542 69.3563 20.9745 69.2565 20.7123C69.1567 20.45 69.005 20.2107 68.8105 20.0085C68.616 19.8063 68.3827 19.6454 68.1245 19.5356C67.8664 19.4257 67.5886 19.369 67.3081 19.369C67.0275 19.369 66.7499 19.4257 66.4918 19.5356C66.2336 19.6454 66.0003 19.8063 65.8058 20.0085C65.6113 20.2107 65.4596 20.45 65.3598 20.7123C65.2601 20.9745 65.2142 21.2542 65.225 21.5345C65.2245 21.955 65.3523 22.3655 65.5912 22.7114L63.4252 24.8744H56.6078V23.375C56.6088 22.9149 56.5186 22.4592 56.3424 22.0342C56.1661 21.6093 55.9073 21.2235 55.5811 20.8991L51.9282 17.2181C51.6035 16.8914 51.2171 16.6325 50.7916 16.4562C50.366 16.28 49.9098 16.19 49.4492 16.1914H47.9436V8.47239L50.1096 6.30949C50.5394 6.60435 51.0639 6.72806 51.5802 6.65628C52.0965 6.58451 52.5674 6.32243 52.9006 5.92151C53.2337 5.52059 53.4051 5.00974 53.3811 4.48903C53.3571 3.96832 53.1394 3.47534 52.7708 3.10675C52.4022 2.73816 51.9093 2.52054 51.3885 2.49655C50.8678 2.47255 50.3571 2.64386 49.9561 2.97699C49.5552 3.31013 49.2931 3.78107 49.2213 4.29737C49.1495 4.81367 49.2732 5.33813 49.5681 5.76798L47.1798 8.15624V16.1914H42.7224V11.0767C43.2333 10.9815 43.6903 10.6989 44.0037 10.2843C44.317 9.86971 44.4643 9.35303 44.4165 8.83554C44.3687 8.31804 44.1292 7.83706 43.7452 7.48689C43.3612 7.13672 42.8603 6.94263 42.3406 6.94263C41.8209 6.94263 41.3199 7.13672 40.9359 7.48689C40.5519 7.83706 40.3126 8.31804 40.2648 8.83554C40.217 9.35303 40.3642 9.86971 40.6776 10.2843C40.991 10.6989 41.4478 10.9815 41.9587 11.0767V16.1914H36.7877V4.13406C37.2986 4.03886 37.7556 3.75626 38.0689 3.34167C38.3823 2.92708 38.5296 2.4104 38.4818 1.89291C38.434 1.37542 38.1945 0.89443 37.8105 0.544259C37.4265 0.194088 36.9256 0 36.4059 0C35.8862 0 35.3852 0.194088 35.0012 0.544259C34.6172 0.89443 34.3778 1.37542 34.33 1.89291C34.2822 2.4104 34.4295 2.92708 34.7429 3.34167C35.0562 3.75626 35.5131 4.03886 36.024 4.13406V16.1914H30.8499V9.74011C31.36 9.64492 31.8161 9.36271 32.1289 8.94871C32.4416 8.53472 32.5884 8.01883 32.5406 7.50217C32.4928 6.98551 32.2538 6.50532 31.8704 6.15574C31.487 5.80615 30.9868 5.61239 30.468 5.61239C29.9491 5.61239 29.4489 5.80615 29.0655 6.15574C28.6821 6.50532 28.4431 6.98551 28.3953 7.50217C28.3475 8.01883 28.4944 8.53472 28.8072 8.94871C29.12 9.36271 29.5761 9.64492 30.0862 9.74011V16.1914H25.6288V9.05463L23.2405 6.66637C23.4801 6.32073 23.6079 5.90996 23.6067 5.48944C23.6067 5.07713 23.4844 4.67405 23.2553 4.33122C23.0263 3.9884 22.7007 3.72122 22.3198 3.56344C21.9389 3.40565 21.5197 3.36432 21.1153 3.44476C20.7109 3.5252 20.3396 3.72376 20.048 4.01531C19.7565 4.30685 19.5579 4.67834 19.4775 5.08273C19.397 5.48712 19.4383 5.90625 19.5961 6.28718C19.7539 6.6681 20.021 6.99371 20.3638 7.22278C20.7066 7.45185 21.1097 7.57408 21.522 7.57408C21.9425 7.57521 22.3534 7.44742 22.699 7.20788L24.865 9.37391V16.1914H23.3594C22.8988 16.19 22.4426 16.28 22.017 16.4562C21.5915 16.6325 21.2051 16.8914 20.8804 17.2181L17.2181 20.8834C16.8912 21.2074 16.6321 21.5931 16.4559 22.0182C16.2796 22.4433 16.1898 22.8992 16.1914 23.3594V24.865H8.47247L6.30644 22.7021C6.54543 22.3562 6.67317 21.9456 6.67264 21.5251C6.67335 21.0591 6.51788 20.6062 6.23109 20.2389C5.94429 19.8716 5.54273 19.611 5.09045 19.4987C4.63817 19.3864 4.16131 19.4288 3.73599 19.6193C3.31067 19.8098 2.96146 20.1372 2.74407 20.5494C2.52668 20.9616 2.45362 21.4348 2.53667 21.8934C2.61971 22.352 2.85399 22.7695 3.20213 23.0793C3.55026 23.3891 3.99214 23.5732 4.45724 23.6024C4.92234 23.6317 5.38382 23.5042 5.76798 23.2404L8.1564 25.6318H16.1914V30.086H11.0736C10.9781 29.5753 10.6952 29.1187 10.2806 28.8057C9.86589 28.4926 9.34928 28.3457 8.83195 28.3937C8.31461 28.4417 7.83391 28.6812 7.48391 29.0651C7.1339 29.4491 6.9398 29.9499 6.9398 30.4695C6.9398 30.989 7.1339 31.4899 7.48391 31.8738C7.83391 32.2578 8.31461 32.4973 8.83195 32.5453C9.34928 32.5933 9.86589 32.4463 10.2806 32.1333C10.6952 31.8202 10.9781 31.3636 11.0736 30.8529H16.1914V36.0239H4.13414C4.03894 35.513 3.75626 35.0561 3.34167 34.7427C2.92708 34.4293 2.4104 34.2822 1.89291 34.33C1.37542 34.3778 0.89443 34.6172 0.544259 35.0012C0.194088 35.3852 0 35.8861 0 36.4058C0 36.9254 0.194088 37.4264 0.544259 37.8104C0.89443 38.1944 1.37542 38.4338 1.89291 38.4816C2.4104 38.5294 2.92708 38.3822 3.34167 38.0689C3.75626 37.7555 4.03894 37.2986 4.13414 36.7877H16.1914V41.9587H9.73706C9.64186 41.4478 9.35933 40.9908 8.94474 40.6774C8.53015 40.3641 8.01347 40.2169 7.49598 40.2647C6.97849 40.3125 6.4975 40.5519 6.14733 40.9359C5.79716 41.3199 5.60307 41.8209 5.60307 42.3406C5.60307 42.8603 5.79716 43.3612 6.14733 43.7452C6.4975 44.1292 6.97849 44.3685 7.49598 44.4163C8.01347 44.4641 8.53015 44.317 8.94474 44.0036C9.35933 43.6902 9.64186 43.2333 9.73706 42.7224H16.1914V47.1797H9.04531L6.65705 49.568C6.22719 49.2731 5.70273 49.1495 5.18643 49.2213C4.67013 49.2931 4.19919 49.5551 3.86606 49.956C3.53292 50.3569 3.36154 50.8678 3.38553 51.3885C3.40952 51.9093 3.62723 52.4022 3.99582 52.7708C4.36441 53.1394 4.85738 53.357 5.37809 53.381C5.89881 53.405 6.40958 53.2336 6.8105 52.9005C7.21142 52.5674 7.47358 52.0965 7.54535 51.5802C7.61712 51.0639 7.49341 50.5394 7.19856 50.1095L9.36138 47.9435H16.182V49.4491C16.1802 49.9097 16.2701 50.3661 16.4464 50.7917C16.6226 51.2173 16.8818 51.6036 17.2087 51.9281L20.8709 55.5935C21.1961 55.9196 21.5826 56.1782 22.008 56.3544C22.4335 56.5306 22.8896 56.6209 23.3501 56.6202H24.8556V64.3392L22.6895 66.5021C22.2597 66.2072 21.7352 66.0835 21.2189 66.1553C20.7026 66.2271 20.2318 66.4891 19.8987 66.8901C19.5656 67.291 19.3942 67.8018 19.4182 68.3225C19.4422 68.8433 19.6597 69.3362 20.0283 69.7048C20.3969 70.0734 20.8899 70.291 21.4106 70.315C21.9313 70.339 22.4422 70.1677 22.8431 69.8346C23.2441 69.5014 23.5061 69.0305 23.5778 68.5142C23.6496 67.9979 23.5259 67.4734 23.231 67.0436L25.6195 64.6553V56.6202H30.0767V61.7349C29.5658 61.8301 29.109 62.1127 28.7956 62.5273C28.4822 62.9419 28.335 63.4585 28.3828 63.976C28.4306 64.4935 28.6699 64.9745 29.0539 65.3247C29.4379 65.6749 29.9389 65.8689 30.4586 65.8689C30.9783 65.8689 31.4792 65.6749 31.8632 65.3247C32.2472 64.9745 32.4867 64.4935 32.5345 63.976C32.5823 63.4585 32.435 62.9419 32.1217 62.5273C31.8083 62.1127 31.3513 61.8301 30.8404 61.7349V56.6202H36.0146V68.6775C35.5046 68.7727 35.0485 69.055 34.7357 69.469C34.4229 69.883 34.276 70.3988 34.3238 70.9155C34.3716 71.4321 34.6106 71.9123 34.994 72.2619C35.3774 72.6115 35.8776 72.8053 36.3964 72.8053C36.9153 72.8053 37.4155 72.6115 37.7989 72.2619C38.1823 71.9123 38.4214 71.4321 38.4692 70.9155C38.517 70.3988 38.3701 69.883 38.0573 69.469C37.7446 69.055 37.2884 68.7727 36.7784 68.6775V56.6202H41.9494V63.0715C41.4385 63.1667 40.9815 63.4493 40.6681 63.8639C40.3548 64.2784 40.2075 64.7951 40.2553 65.3126C40.3031 65.8301 40.5426 66.3111 40.9266 66.6613C41.3106 67.0114 41.8115 67.2055 42.3312 67.2055C42.8509 67.2055 43.3519 67.0114 43.7359 66.6613C44.1199 66.3111 44.3592 65.8301 44.407 65.3126C44.4548 64.7951 44.3076 64.2784 43.9942 63.8639C43.6808 63.4493 43.224 63.1667 42.7131 63.0715V56.6202H47.1703V63.7538L49.5588 66.1421C49.2606 66.5728 49.1341 67.0994 49.2042 67.6186C49.2743 68.1377 49.5358 68.612 49.9375 68.9482C50.3392 69.2844 50.8522 69.4584 51.3756 69.436C51.8989 69.4136 52.395 69.1963 52.7665 68.827C53.138 68.4576 53.3579 67.9628 53.3834 67.4396C53.4088 66.9164 53.238 66.4025 52.9041 65.9989C52.5702 65.5952 52.0974 65.3308 51.5787 65.2577C51.0599 65.1846 50.5327 65.308 50.1003 65.6037L47.9342 63.4377V56.6202H49.4241C49.8846 56.6209 50.3407 56.5306 50.7662 56.3544C51.1916 56.1782 51.578 55.9196 51.9032 55.5935L55.5685 51.9281C55.8949 51.6032 56.1538 51.2168 56.33 50.7913C56.5062 50.3658 56.5964 49.9096 56.5953 49.4491V47.9435H64.3111L66.4771 50.1095C66.2381 50.4554 66.1104 50.866 66.1109 51.2864C66.1097 51.7539 66.2651 52.2084 66.5525 52.5772C66.8398 52.9459 67.2424 53.2077 67.696 53.3208C68.1496 53.4339 68.6281 53.3917 69.0549 53.201C69.4817 53.0102 69.8323 52.682 70.0506 52.2686C70.269 51.8552 70.3426 51.3806 70.2596 50.9205C70.1765 50.4605 69.9417 50.0416 69.5926 49.7306C69.2435 49.4197 68.8002 49.2347 68.3336 49.2052C67.8671 49.1758 67.4041 49.3035 67.0186 49.568L64.6271 47.1797H56.5953V42.7224H61.7099C61.8051 43.2325 62.0873 43.6886 62.5013 44.0014C62.9153 44.3142 63.4313 44.461 63.9479 44.4132C64.4646 44.3654 64.9447 44.1264 65.2943 43.743C65.6439 43.3596 65.8376 42.8594 65.8376 42.3406C65.8376 41.8217 65.6439 41.3215 65.2943 40.9381C64.9447 40.5547 64.4646 40.3156 63.9479 40.2678C63.4313 40.22 62.9153 40.367 62.5013 40.6797C62.0873 40.9925 61.8051 41.4486 61.7099 41.9587H56.5953V36.7877H68.6494C68.7202 37.1773 68.9005 37.5387 69.1692 37.8296C69.4379 38.1205 69.7838 38.3289 70.1666 38.4303C70.5494 38.5317 70.9533 38.522 71.3308 38.4023C71.7083 38.2826 72.0437 38.0578 72.2981 37.7543C72.5525 37.4508 72.7152 37.0812 72.7672 36.6886C72.8191 36.296 72.7581 35.8967 72.5914 35.5375C72.4247 35.1783 72.1592 34.874 71.8259 34.6603C71.4925 34.4465 71.1051 34.3321 70.7091 34.3305ZM65.1061 29.1595C65.3675 29.1589 65.6232 29.2358 65.8408 29.3806C66.0585 29.5254 66.2282 29.7315 66.3287 29.9728C66.4292 30.2141 66.4557 30.4798 66.4051 30.7362C66.3545 30.9926 66.229 31.2283 66.0444 31.4133C65.8598 31.5984 65.6244 31.7245 65.3681 31.7757C65.1118 31.8269 64.8461 31.8009 64.6045 31.7011C64.363 31.6012 64.1565 31.4319 64.0112 31.2147C63.8659 30.9974 63.7884 30.7418 63.7884 30.4804C63.7871 30.3067 63.8201 30.1345 63.8856 29.9735C63.951 29.8126 64.0476 29.6661 64.1697 29.5425C64.2918 29.4189 64.437 29.3207 64.5972 29.2534C64.7573 29.186 64.9292 29.1509 65.1029 29.1501L65.1061 29.1595ZM67.2972 20.2135C67.5586 20.2129 67.8143 20.2899 68.0319 20.4347C68.2496 20.5795 68.4193 20.7855 68.5198 21.0268C68.6202 21.2681 68.6468 21.5339 68.5962 21.7903C68.5456 22.0467 68.4201 22.2823 68.2355 22.4674C68.0509 22.6524 67.8155 22.7785 67.5592 22.8298C67.3029 22.881 67.0372 22.8551 66.7956 22.7552C66.5541 22.6553 66.3476 22.486 66.2023 22.2687C66.057 22.0514 65.9795 21.7959 65.9795 21.5345C65.9782 21.36 66.0116 21.187 66.0776 21.0254C66.1436 20.8639 66.2409 20.717 66.364 20.5933C66.4871 20.4696 66.6336 20.3715 66.7949 20.3047C66.9561 20.2379 67.129 20.2038 67.3035 20.2042L67.2972 20.2135ZM51.2646 3.27954C51.5258 3.27954 51.7813 3.357 51.9985 3.50215C52.2157 3.64729 52.385 3.85357 52.485 4.09493C52.585 4.3363 52.6112 4.6019 52.5602 4.85813C52.5092 5.11437 52.3833 5.34971 52.1986 5.53445C52.0139 5.71918 51.7785 5.84502 51.5223 5.89599C51.266 5.94695 51.0005 5.92077 50.7592 5.82079C50.5178 5.72081 50.3114 5.55153 50.1663 5.3343C50.0211 5.11708 49.9438 4.8617 49.9438 4.60045C49.9425 4.42567 49.976 4.25234 50.0422 4.09058C50.1084 3.92882 50.2061 3.78186 50.3295 3.65812C50.453 3.53438 50.5997 3.43639 50.7613 3.36979C50.9229 3.30319 51.0961 3.26931 51.2709 3.27014L51.2646 3.27954ZM40.9978 9.03583C40.9978 8.77458 41.0752 8.5192 41.2203 8.30198C41.3655 8.08475 41.5718 7.91547 41.8132 7.81549C42.0546 7.71551 42.3201 7.68932 42.5763 7.74029C42.8326 7.79126 43.068 7.9171 43.2528 8.10183C43.4375 8.28657 43.5633 8.52191 43.6142 8.77814C43.6652 9.03438 43.639 9.29998 43.539 9.54135C43.4391 9.78271 43.2698 9.98899 43.0526 10.1341C42.8353 10.2793 42.5799 10.3567 42.3186 10.3567C41.968 10.3543 41.6328 10.2128 41.3863 9.96341C41.1399 9.71402 41.0024 9.37705 41.0041 9.02643L40.9978 9.03583ZM35.0505 2.09634C35.0499 1.83495 35.1268 1.57928 35.2715 1.36164C35.4163 1.14401 35.6225 0.97416 35.8638 0.873703C36.1051 0.773246 36.3708 0.74667 36.6272 0.797284C36.8837 0.847898 37.1192 0.973451 37.3043 1.15806C37.4893 1.34267 37.6155 1.57805 37.6667 1.83437C37.7179 2.09069 37.692 2.35641 37.5921 2.59795C37.4922 2.8395 37.3229 3.04599 37.1056 3.19127C36.8883 3.33656 36.6328 3.41411 36.3714 3.41411C36.0238 3.40917 35.6921 3.26742 35.4484 3.01956C35.2046 2.7717 35.0685 2.43771 35.0693 2.09007L35.0505 2.09634ZM29.1033 7.69926C29.1033 7.43787 29.1808 7.18239 29.3261 6.96509C29.4714 6.7478 29.6779 6.57849 29.9194 6.47861C30.161 6.37872 30.4267 6.35272 30.683 6.40395C30.9393 6.45517 31.1747 6.58128 31.3593 6.76633C31.5439 6.95137 31.6694 7.18704 31.72 7.44348C31.7706 7.69992 31.7441 7.9656 31.6436 8.20691C31.5431 8.44822 31.3734 8.65432 31.1557 8.79908C30.9381 8.94385 30.6824 9.02078 30.421 9.02017C30.0751 9.01115 29.7464 8.86675 29.5058 8.61797C29.2653 8.36919 29.132 8.03592 29.1346 7.68986L29.1033 7.69926ZM21.4751 6.81974C21.2138 6.81974 20.9585 6.7422 20.7413 6.59706C20.5241 6.45191 20.3546 6.24564 20.2547 6.00427C20.1547 5.76291 20.1286 5.49731 20.1796 5.24107C20.2306 4.98484 20.3563 4.74949 20.5411 4.56476C20.7258 4.38003 20.9612 4.25419 21.2174 4.20322C21.4736 4.15225 21.7392 4.17844 21.9805 4.27842C22.2219 4.37839 22.4282 4.54768 22.5734 4.7649C22.7185 4.98213 22.7961 5.23751 22.7961 5.49876C22.7937 5.8421 22.6578 6.17104 22.417 6.41587C22.1763 6.66069 21.8497 6.80222 21.5064 6.81035L21.4751 6.81974ZM4.54099 22.8523C4.27961 22.8523 4.0242 22.7748 3.80691 22.6295C3.58962 22.4842 3.42031 22.2777 3.32042 22.0361C3.22054 21.7946 3.19446 21.5288 3.24569 21.2725C3.29691 21.0162 3.42302 20.7809 3.60807 20.5963C3.79311 20.4116 4.02886 20.2861 4.2853 20.2355C4.54173 20.1849 4.80741 20.2114 5.04873 20.3119C5.29004 20.4124 5.49606 20.5821 5.64082 20.7998C5.78559 21.0174 5.8626 21.2731 5.86198 21.5345C5.85883 21.8773 5.72252 22.2054 5.48187 22.4496C5.24122 22.6937 4.91505 22.8348 4.57233 22.8429L4.54099 22.8523ZM8.97959 31.7982C8.7182 31.7982 8.46264 31.7206 8.24535 31.5754C8.02806 31.4301 7.85875 31.2236 7.75886 30.982C7.65898 30.7405 7.63306 30.4748 7.68428 30.2185C7.7355 29.9621 7.86161 29.7267 8.04666 29.5421C8.23171 29.3575 8.4673 29.232 8.72373 29.1814C8.98017 29.1308 9.24585 29.1574 9.48717 29.2579C9.72848 29.3583 9.93465 29.5281 10.0794 29.7457C10.2242 29.9634 10.301 30.219 10.3004 30.4804C10.2973 30.8232 10.1611 31.1514 9.92046 31.3955C9.67981 31.6397 9.35364 31.7807 9.01092 31.7888L8.97959 31.7982ZM2.04009 37.7455C1.77857 37.7461 1.52279 37.6691 1.30509 37.5241C1.08739 37.3792 0.917594 37.173 0.817229 36.9315C0.716864 36.69 0.6904 36.4242 0.741268 36.1676C0.792136 35.9111 0.917963 35.6755 1.10289 35.4906C1.28781 35.3056 1.52344 35.1797 1.77996 35.1289C2.03649 35.078 2.30236 35.1045 2.54385 35.2048C2.78534 35.3052 2.99165 35.475 3.13656 35.6927C3.28146 35.9104 3.35849 36.1662 3.35787 36.4277C3.35153 36.7678 3.2142 37.0923 2.97455 37.3337C2.7349 37.5751 2.41146 37.7148 2.07142 37.7236L2.04009 37.7455ZM7.64301 43.6927C7.38163 43.6933 7.12595 43.6164 6.90832 43.4716C6.69068 43.3269 6.52091 43.1208 6.42045 42.8795C6.32 42.6382 6.29327 42.3725 6.34388 42.116C6.3945 41.8596 6.52013 41.6239 6.70473 41.4389C6.88934 41.2538 7.12473 41.1277 7.38105 41.0765C7.63736 41.0253 7.90308 41.0513 8.14463 41.1512C8.38618 41.251 8.59267 41.4204 8.73795 41.6377C8.88323 41.8549 8.96079 42.1104 8.96079 42.3718C8.95211 42.7106 8.81389 43.0331 8.57456 43.273C8.33524 43.5129 8.01308 43.652 7.67434 43.6615L7.64301 43.6927ZM5.45191 52.6387C5.19053 52.6393 4.93485 52.5624 4.71722 52.4176C4.49958 52.2728 4.32981 52.0667 4.22936 51.8254C4.1289 51.5841 4.10217 51.3184 4.15278 51.062C4.2034 50.8056 4.32903 50.5699 4.51364 50.3848C4.69825 50.1998 4.93363 50.0737 5.18995 50.0225C5.44627 49.9712 5.71198 49.9972 5.95353 50.0971C6.19508 50.197 6.40157 50.3663 6.54685 50.5836C6.69213 50.8009 6.76969 51.0564 6.76969 51.3178C6.76168 51.6584 6.62235 51.9827 6.38087 52.223C6.13939 52.4633 5.81439 52.601 5.47377 52.6074L5.45191 52.6387ZM21.4846 69.5696C21.2241 69.569 20.9695 69.4912 20.7532 69.346C20.5369 69.2009 20.3684 68.9948 20.2692 68.7539C20.1699 68.5131 20.1443 68.2482 20.1955 67.9928C20.2467 67.7374 20.3726 67.5029 20.557 67.3189C20.7414 67.1349 20.9761 67.0097 21.2316 66.9591C21.4871 66.9086 21.752 66.9348 21.9926 67.0347C22.2332 67.1345 22.4388 67.3033 22.5835 67.52C22.7281 67.7366 22.8054 67.9914 22.8054 68.2519C22.7966 68.5924 22.6565 68.9164 22.4144 69.1561C22.1724 69.3959 21.847 69.5328 21.5064 69.5383L21.4846 69.5696ZM31.7514 63.8133C31.752 64.0747 31.675 64.3303 31.5302 64.548C31.3854 64.7656 31.1794 64.9354 30.9381 65.0359C30.6968 65.1364 30.4311 65.1629 30.1747 65.1123C29.9182 65.0617 29.6825 64.9361 29.4974 64.7515C29.3124 64.5669 29.1863 64.3316 29.1351 64.0752C29.0838 63.8189 29.1099 63.5532 29.2098 63.3116C29.3097 63.0701 29.479 62.8636 29.6963 62.7183C29.9136 62.573 30.169 62.4955 30.4304 62.4955C30.7786 62.4896 31.1152 62.6214 31.3667 62.8624C31.6181 63.1033 31.7642 63.4339 31.7732 63.782L31.7514 63.8133ZM37.6986 70.756C37.6986 71.0174 37.6211 71.2728 37.4758 71.4901C37.3305 71.7074 37.124 71.8767 36.8825 71.9766C36.6409 72.0765 36.3752 72.1024 36.1189 72.0512C35.8626 72 35.6272 71.8739 35.4426 71.6888C35.258 71.5038 35.1323 71.2682 35.0817 71.0117C35.0311 70.7553 35.0578 70.4895 35.1583 70.2482C35.2587 70.0069 35.4285 69.8009 35.6461 69.6561C35.8638 69.5114 36.1195 69.4344 36.3808 69.435C36.7269 69.4332 37.0598 69.5674 37.308 69.8086C37.5561 70.0498 37.6997 70.3787 37.7079 70.7246L37.6986 70.756ZM43.6459 65.1498C43.6465 65.4114 43.5695 65.6672 43.4246 65.8849C43.2797 66.1026 43.0734 66.2724 42.8319 66.3728C42.5904 66.4731 42.3245 66.4995 42.068 66.4487C41.8114 66.3978 41.5758 66.2719 41.3909 66.087C41.206 65.9021 41.0801 65.6664 41.0293 65.4099C40.9784 65.1534 41.0049 64.8875 41.1052 64.646C41.2056 64.4045 41.3754 64.1983 41.5931 64.0534C41.8108 63.9085 42.0666 63.8314 42.3281 63.8321C42.6715 63.8336 43.0006 63.9687 43.2461 64.2089C43.4915 64.449 43.6337 64.7753 43.6427 65.1186L43.6459 65.1498ZM51.2741 66.0326C51.5353 66.0326 51.7906 66.11 52.0078 66.2552C52.2251 66.4003 52.3944 66.6066 52.4943 66.848C52.5943 67.0893 52.6205 67.3549 52.5695 67.6112C52.5186 67.8674 52.3928 68.1027 52.2081 68.2875C52.0233 68.4722 51.788 68.598 51.5318 68.649C51.2755 68.7 51.0098 68.6738 50.7685 68.5738C50.5271 68.4738 50.3209 68.3046 50.1758 68.0873C50.0306 67.8701 49.9531 67.6147 49.9531 67.3535C49.9489 67.1777 49.9799 67.0028 50.0442 66.8391C50.1085 66.6754 50.2049 66.5262 50.3277 66.4003C50.4504 66.2743 50.597 66.1741 50.759 66.1056C50.921 66.0371 51.095 66.0016 51.2709 66.0012L51.2741 66.0326ZM68.2049 49.9812C68.4663 49.9812 68.7219 50.0588 68.9392 50.204C69.1565 50.3493 69.3258 50.5558 69.4257 50.7974C69.5256 51.0389 69.5515 51.3046 69.5003 51.5609C69.449 51.8173 69.3229 52.0526 69.1379 52.2373C68.9528 52.4219 68.7171 52.5474 68.4606 52.598C68.2042 52.6486 67.9385 52.6221 67.6972 52.5216C67.4559 52.4212 67.2499 52.2513 67.1051 52.0337C66.9604 51.816 66.8833 51.5604 66.884 51.299C66.8848 50.9492 67.0244 50.614 67.272 50.367C67.5196 50.1199 67.8552 49.9812 68.2049 49.9812ZM63.7663 41.0352C64.0279 41.0346 64.2838 41.1116 64.5015 41.2565C64.7192 41.4015 64.889 41.6078 64.9894 41.8493C65.0897 42.0908 65.116 42.3566 65.0652 42.6131C65.0143 42.8697 64.8885 43.1053 64.7036 43.2902C64.5186 43.4751 64.283 43.601 64.0265 43.6518C63.77 43.7027 63.5041 43.6763 63.2626 43.576C63.0211 43.4756 62.8148 43.3058 62.6699 43.0881C62.525 42.8704 62.448 42.6145 62.4486 42.353C62.4473 42.179 62.4805 42.0065 62.5461 41.8454C62.6117 41.6842 62.7087 41.5377 62.8311 41.414C62.9536 41.2904 63.0992 41.1923 63.2597 41.1251C63.4202 41.058 63.5924 41.0231 63.7663 41.0227V41.0352ZM55.8378 49.4616C55.8386 49.8219 55.7683 50.1788 55.6307 50.5119C55.4932 50.8449 55.2913 51.1475 55.0365 51.4023L51.3711 55.0645C51.1177 55.3205 50.8158 55.5234 50.4831 55.6615C50.1505 55.7996 49.7936 55.8702 49.4334 55.869H23.3438C22.9837 55.8702 22.6268 55.7996 22.2941 55.6615C21.9615 55.5234 21.6597 55.3205 21.4063 55.0645L17.7408 51.4023C17.486 51.1475 17.284 50.8449 17.1465 50.5119C17.009 50.1788 16.9388 49.8219 16.9396 49.4616V23.375C16.939 23.0152 17.0095 22.6588 17.147 22.3263C17.2845 21.9938 17.4862 21.6918 17.7408 21.4375L21.4063 17.7721C21.6603 17.5171 21.9622 17.315 22.2948 17.1775C22.6273 17.0399 22.984 16.9697 23.3438 16.9708H49.4241C49.784 16.9697 50.1405 17.0399 50.473 17.1775C50.8056 17.315 51.1077 17.5171 51.3616 17.7721L55.027 21.4375C55.2816 21.6918 55.4834 21.9938 55.621 22.3263C55.7585 22.6588 55.8289 23.0152 55.8284 23.375L55.8378 49.4616ZM70.706 37.7361C70.4446 37.7361 70.189 37.6586 69.9718 37.5133C69.7545 37.368 69.5852 37.1615 69.4853 36.92C69.3854 36.6784 69.3595 36.4126 69.4107 36.1563C69.4619 35.9 69.588 35.6646 69.7731 35.48C69.9581 35.2954 70.1937 35.1698 70.4501 35.1192C70.7066 35.0686 70.9723 35.0953 71.2136 35.1957C71.4549 35.2962 71.6611 35.466 71.8058 35.6836C71.9506 35.9012 72.0275 36.1569 72.0268 36.4183C72.0227 36.7654 71.8822 37.0969 71.6356 37.3411C71.389 37.5854 71.0561 37.7228 70.7091 37.7236L70.706 37.7361Z" fill="url(#paint0_linear_386_14748)"/>
<path d="M44.1008 26.8966C43.924 26.7191 43.7137 26.5784 43.4821 26.4827C43.2505 26.3871 43.0022 26.3384 42.7517 26.3394H30.0152C29.765 26.3379 29.5171 26.3865 29.286 26.4821C29.0548 26.5778 28.8452 26.7187 28.6693 26.8966L26.885 28.6964C26.7071 28.8731 26.5659 29.0833 26.4698 29.3149C26.3736 29.5464 26.3243 29.7948 26.3247 30.0455V42.782C26.3243 43.0328 26.3736 43.2811 26.4698 43.5127C26.5659 43.7442 26.7071 43.9544 26.885 44.1311L28.6755 45.9216C28.8515 46.0994 29.0611 46.2403 29.2922 46.336C29.5234 46.4317 29.7713 46.4802 30.0214 46.4787H42.7642C43.0133 46.4768 43.2596 46.4258 43.489 46.3286C43.7183 46.2313 43.9262 46.0899 44.1008 45.9122L45.8881 44.1217C46.0669 43.9457 46.2085 43.7356 46.3047 43.5039C46.401 43.2722 46.4498 43.0235 46.4484 42.7726V30.033C46.4498 29.7821 46.401 29.5334 46.3047 29.3017C46.2085 29.07 46.0669 28.8599 45.8881 28.6839L44.1008 26.8966ZM45.6847 42.7757C45.6853 42.9259 45.656 43.0746 45.5985 43.2133C45.5409 43.3519 45.4565 43.4777 45.3498 43.5834L43.5593 45.3738C43.4535 45.4802 43.3276 45.5645 43.1889 45.622C43.0503 45.6795 42.9017 45.709 42.7517 45.7087H30.0152C29.8651 45.709 29.7165 45.6795 29.5779 45.622C29.4393 45.5645 29.3134 45.4802 29.2076 45.3738L27.4172 43.5834C27.3105 43.4777 27.2259 43.3519 27.1684 43.2133C27.1109 43.0746 27.0816 42.9259 27.0822 42.7757V30.0361C27.0817 29.8855 27.111 29.7364 27.1685 29.5972C27.226 29.4581 27.3106 29.3317 27.4172 29.2254L29.2076 27.4381C29.3134 27.3317 29.4393 27.2473 29.5779 27.1899C29.7165 27.1324 29.8651 27.1029 30.0152 27.1031H42.7579C42.908 27.1029 43.0566 27.1324 43.1952 27.1899C43.3338 27.2473 43.4597 27.3317 43.5655 27.4381L45.3559 29.2254C45.4625 29.3317 45.5471 29.4581 45.6046 29.5972C45.6621 29.7364 45.6914 29.8855 45.6909 30.0361L45.6847 42.7757Z" fill="url(#paint1_linear_386_14748)"/>
<path d="M50.2907 18.8393C50.1784 18.7261 50.0448 18.6362 49.8976 18.5749C49.7503 18.5137 49.5924 18.4823 49.4329 18.4825H23.3433C23.1839 18.4827 23.026 18.5142 22.8789 18.5755C22.7317 18.6367 22.5981 18.7264 22.4856 18.8393L18.8202 22.5047C18.7076 22.6166 18.6184 22.7498 18.5577 22.8965C18.4969 23.0432 18.466 23.2005 18.4666 23.3593V49.449C18.4658 49.6083 18.4966 49.7661 18.5574 49.9133C18.6181 50.0606 18.7074 50.1943 18.8202 50.3067L22.4856 53.972C22.5982 54.0846 22.732 54.1738 22.8792 54.2345C23.0264 54.2952 23.1841 54.3262 23.3433 54.3257H49.4236C49.5829 54.3265 49.7407 54.2957 49.8879 54.235C50.0352 54.1743 50.1689 54.0849 50.2813 53.972L53.9467 50.3067C54.0596 50.1943 54.1489 50.0606 54.2096 49.9133C54.2703 49.7661 54.3012 49.6083 54.3004 49.449V23.3749C54.301 23.2162 54.27 23.0589 54.2093 22.9122C54.1486 22.7655 54.0593 22.6323 53.9467 22.5204L50.2907 18.8393ZM53.546 49.449C53.545 49.5665 53.4978 49.679 53.4145 49.762L49.7366 53.4243C49.6538 53.5078 49.5412 53.555 49.4236 53.5557H23.3339C23.2162 53.555 23.1037 53.5078 23.0209 53.4243L19.3555 49.762C19.2723 49.679 19.2251 49.5665 19.224 49.449V23.3749C19.2247 23.2573 19.272 23.1447 19.3555 23.0619L23.0209 19.3965C23.1037 19.313 23.2162 19.2658 23.3339 19.2651H49.4236C49.5412 19.2658 49.6538 19.313 49.7366 19.3965L53.402 23.0619C53.4855 23.1447 53.5328 23.2573 53.5334 23.3749L53.546 49.449Z" fill="url(#paint2_linear_386_14748)"/>
<path d="M33.4744 32.4091L30.6886 40.4034H32.4446L33.0457 38.4658H35.8628L36.4638 40.4034H38.226L35.4402 32.4091H33.4744ZM33.4369 37.2106L34.4448 33.9585H34.4792L35.4841 37.2106H33.4369Z" fill="url(#paint3_linear_386_14748)"/>
<path d="M40.7309 32.4069H39.0563V40.4044H40.7309V32.4069Z" fill="url(#paint4_linear_386_14748)"/>
<defs>
<linearGradient id="paint0_linear_386_14748" x1="0.662746" y1="36.4058" x2="72.5996" y2="36.4058" gradientUnits="userSpaceOnUse">
<stop stop-color="#C74EC7"/>
<stop offset="1" stop-color="#7575FB"/>
</linearGradient>
<linearGradient id="paint1_linear_386_14748" x1="26.5079" y1="36.4099" x2="46.3971" y2="36.4099" gradientUnits="userSpaceOnUse">
<stop stop-color="#C74EC7"/>
<stop offset="1" stop-color="#7575FB"/>
</linearGradient>
<linearGradient id="paint2_linear_386_14748" x1="18.7928" y1="36.4057" x2="54.2091" y2="36.4057" gradientUnits="userSpaceOnUse">
<stop stop-color="#C74EC7"/>
<stop offset="1" stop-color="#7575FB"/>
</linearGradient>
<linearGradient id="paint3_linear_386_14748" x1="30.7572" y1="36.4066" x2="38.2068" y2="36.4066" gradientUnits="userSpaceOnUse">
<stop stop-color="#C74EC7"/>
<stop offset="1" stop-color="#7575FB"/>
</linearGradient>
<linearGradient id="paint4_linear_386_14748" x1="39.0715" y1="36.406" x2="40.7266" y2="36.406" gradientUnits="userSpaceOnUse">
<stop stop-color="#C74EC7"/>
<stop offset="1" stop-color="#7575FB"/>
</linearGradient>
</defs>
</svg>
