<svg width="14" height="16" viewBox="0 0 14 16" fill="none" xmlns="http://www.w3.org/2000/svg">
<path d="M5.81817 0C5.21442 0 4.71236 0.380404 4.49431 0.909089H2.90908C2.81265 0.909099 2.72016 0.947413 2.65197 1.01561C2.58377 1.0838 2.54546 1.17629 2.54545 1.27272V1.81818H1.09091C0.492834 1.81818 0 2.31101 0 2.90908V14.9091C0 15.5071 0.492834 16 1.09091 16H9.09089C9.13907 16.0006 9.18692 15.9917 9.23163 15.9738C9.27635 15.9558 9.31705 15.9291 9.35136 15.8953C9.38568 15.8615 9.41293 15.8211 9.43153 15.7767C9.45013 15.7322 9.4597 15.6845 9.4597 15.6363C9.4597 15.5881 9.45013 15.5404 9.43153 15.496C9.41293 15.4515 9.38568 15.4112 9.35136 15.3774C9.31705 15.3435 9.27635 15.3169 9.23163 15.2989C9.18692 15.2809 9.13907 15.272 9.09089 15.2727H1.09091C0.883163 15.2727 0.727271 15.1168 0.727271 14.9091V2.90908C0.727271 2.70134 0.883163 2.54545 1.09091 2.54545H2.54545V3.0909H1.63636C1.625 3.09037 1.61363 3.09037 1.60227 3.0909C1.51186 3.09942 1.4279 3.14146 1.36692 3.20876C1.30593 3.27605 1.27233 3.36372 1.27272 3.45454V14.3636C1.27273 14.46 1.31105 14.5525 1.37924 14.6207C1.44743 14.6889 1.53992 14.7272 1.63636 14.7272H9.99998C10.0964 14.7272 10.1889 14.6889 10.2571 14.6207C10.3253 14.5525 10.3636 14.46 10.3636 14.3636V12.1704C10.424 12.1738 10.4843 12.1818 10.5454 12.1818C10.6681 12.1818 10.7899 12.1723 10.9091 12.1591V14.9091C10.9091 15.1168 10.7532 15.2727 10.5454 15.2727C10.4972 15.272 10.4494 15.2809 10.4047 15.2989C10.36 15.3169 10.3193 15.3435 10.285 15.3774C10.2506 15.4112 10.2234 15.4515 10.2048 15.496C10.1862 15.5404 10.1766 15.5881 10.1766 15.6363C10.1766 15.6845 10.1862 15.7322 10.2048 15.7767C10.2234 15.8211 10.2506 15.8615 10.285 15.8953C10.3193 15.9291 10.36 15.9558 10.4047 15.9738C10.4494 15.9917 10.4972 16.0006 10.5454 16C11.1435 16 11.6363 15.5071 11.6363 14.9091V11.9886C11.6776 11.9739 11.7209 11.9651 11.7613 11.9488L13.142 14.1931C13.1674 14.2342 13.2006 14.2698 13.2397 14.298C13.2789 14.3263 13.3232 14.3465 13.3701 14.3576C13.4171 14.3686 13.4658 14.3704 13.5134 14.3626C13.561 14.3549 13.6067 14.3379 13.6477 14.3125C13.6888 14.2871 13.7244 14.2539 13.7526 14.2148C13.7808 14.1756 13.801 14.1313 13.8121 14.0843C13.8232 14.0374 13.8249 13.9887 13.8172 13.9411C13.8094 13.8935 13.7924 13.8478 13.767 13.8068L12.4091 11.5966C13.2607 11.0048 13.8182 10.0213 13.8182 8.90907C13.8182 7.48897 12.9044 6.2809 11.6363 5.82953V2.90908C11.6363 2.31101 11.1435 1.81818 10.5454 1.81818H9.09089V1.27272C9.09088 1.17629 9.05256 1.0838 8.98437 1.01561C8.91618 0.947413 8.82369 0.909099 8.72725 0.909089H7.14203C6.92398 0.380404 6.42192 0 5.81817 0ZM5.81817 0.727271C6.18333 0.727271 6.47668 0.99044 6.53408 1.33522C6.54879 1.41951 6.59274 1.4959 6.65821 1.55098C6.72368 1.60606 6.80647 1.63629 6.89203 1.63636H8.36362V3.0909H3.27272V1.63636H4.74431C4.82986 1.63629 4.91265 1.60606 4.97812 1.55098C5.04359 1.4959 5.08755 1.41951 5.10226 1.33522C5.15965 0.99044 5.45301 0.727271 5.81817 0.727271ZM9.09089 2.54545H10.5454C10.7532 2.54545 10.9091 2.70134 10.9091 2.90908V5.65908C10.7899 5.64584 10.6681 5.63635 10.5454 5.63635C10.4843 5.63635 10.424 5.64438 10.3636 5.64771V3.45454C10.3636 3.3581 10.3253 3.26561 10.2571 3.19742C10.1889 3.12923 10.0964 3.09091 9.99998 3.0909H9.09089V2.54545ZM2 3.81817H9.63634V5.76703C8.27362 6.16258 7.27271 7.42136 7.27271 8.90907C7.27271 10.3968 8.27362 11.6556 9.63634 12.0511V14H2V3.81817ZM3.05681 5.63635C3.00905 5.63858 2.9622 5.6502 2.91893 5.67053C2.87566 5.69087 2.83682 5.71954 2.80463 5.75489C2.77243 5.79024 2.74752 5.83158 2.73131 5.87656C2.7151 5.92154 2.70791 5.96928 2.71015 6.01704C2.71239 6.06479 2.72401 6.11165 2.74436 6.15491C2.76471 6.19818 2.79338 6.23701 2.82873 6.2692C2.86409 6.30138 2.90544 6.32628 2.95043 6.34249C2.99541 6.35869 3.04314 6.36587 3.0909 6.36362H7.09089C7.13908 6.3643 7.18692 6.3554 7.23164 6.33743C7.27635 6.31946 7.31705 6.29279 7.35136 6.25895C7.38568 6.22512 7.41293 6.1848 7.43153 6.14034C7.45013 6.09589 7.45971 6.04818 7.45971 5.99999C7.45971 5.9518 7.45013 5.90409 7.43153 5.85963C7.41293 5.81517 7.38568 5.77485 7.35136 5.74102C7.31705 5.70719 7.27635 5.68051 7.23164 5.66254C7.18692 5.64457 7.13908 5.63567 7.09089 5.63635H3.0909C3.07954 5.63582 3.06817 5.63582 3.05681 5.63635ZM10.5454 6.36362C11.9556 6.36362 13.0909 7.49895 13.0909 8.90907C13.0909 10.3192 11.9556 11.4545 10.5454 11.4545C9.13531 11.4545 7.99998 10.3192 7.99998 8.90907C7.99998 7.49895 9.13531 6.36362 10.5454 6.36362ZM3.05681 7.45453C3.00905 7.45676 2.9622 7.46837 2.91893 7.48871C2.87566 7.50905 2.83682 7.53771 2.80463 7.57306C2.77243 7.60842 2.74752 7.64976 2.73131 7.69474C2.7151 7.73972 2.70791 7.78745 2.71015 7.83521C2.71239 7.88297 2.72401 7.92982 2.74436 7.97309C2.76471 8.01636 2.79338 8.05519 2.82873 8.08737C2.86409 8.11956 2.90544 8.14446 2.95043 8.16066C2.99541 8.17687 3.04314 8.18405 3.0909 8.1818H5.99999C6.04817 8.18248 6.09601 8.17358 6.14073 8.15561C6.18544 8.13764 6.22614 8.11096 6.26046 8.07713C6.29477 8.0433 6.32202 8.00298 6.34062 7.95852C6.35922 7.91406 6.3688 7.86635 6.3688 7.81816C6.3688 7.76997 6.35922 7.72226 6.34062 7.67781C6.32202 7.63335 6.29477 7.59303 6.26046 7.5592C6.22614 7.52536 6.18544 7.49869 6.14073 7.48072C6.09601 7.46275 6.04817 7.45385 5.99999 7.45453H3.0909C3.07954 7.454 3.06817 7.454 3.05681 7.45453ZM3.05681 9.27271C3.00905 9.27494 2.9622 9.28655 2.91893 9.30689C2.87566 9.32723 2.83682 9.35589 2.80463 9.39124C2.77243 9.42659 2.74752 9.46794 2.73131 9.51292C2.7151 9.5579 2.70791 9.60563 2.71015 9.65339C2.71239 9.70115 2.72401 9.748 2.74436 9.79127C2.76471 9.83453 2.79338 9.87337 2.82873 9.90555C2.86409 9.93774 2.90544 9.96264 2.95043 9.97884C2.99541 9.99504 3.04314 10.0022 3.0909 9.99998H5.99999C6.04817 10.0007 6.09601 9.99176 6.14073 9.97379C6.18544 9.95582 6.22614 9.92914 6.26046 9.89531C6.29477 9.86147 6.32202 9.82116 6.34062 9.7767C6.35922 9.73224 6.3688 9.68453 6.3688 9.63634C6.3688 9.58815 6.35922 9.54044 6.34062 9.49598C6.32202 9.45153 6.29477 9.41121 6.26046 9.37738C6.22614 9.34354 6.18544 9.31686 6.14073 9.2989C6.09601 9.28093 6.04817 9.27203 5.99999 9.27271H3.0909C3.07954 9.27217 3.06817 9.27217 3.05681 9.27271ZM3.05681 11.0909C3.00905 11.0931 2.9622 11.1047 2.91893 11.1251C2.87566 11.1454 2.83682 11.1741 2.80463 11.2094C2.77243 11.2448 2.74752 11.2861 2.73131 11.3311C2.7151 11.3761 2.70791 11.4238 2.71015 11.4716C2.71239 11.5193 2.72401 11.5662 2.74436 11.6094C2.76471 11.6527 2.79338 11.6915 2.82873 11.7237C2.86409 11.7559 2.90544 11.7808 2.95043 11.797C2.99541 11.8132 3.04314 11.8204 3.0909 11.8182H7.09089C7.13908 11.8188 7.18692 11.8099 7.23164 11.792C7.27635 11.774 7.31705 11.7473 7.35136 11.7135C7.38568 11.6797 7.41293 11.6393 7.43153 11.5949C7.45013 11.5504 7.45971 11.5027 7.45971 11.4545C7.45971 11.4063 7.45013 11.3586 7.43153 11.3142C7.41293 11.2697 7.38568 11.2294 7.35136 11.1956C7.31705 11.1617 7.27635 11.135 7.23164 11.1171C7.18692 11.0991 7.13908 11.0902 7.09089 11.0909H3.0909C3.07954 11.0904 3.06817 11.0904 3.05681 11.0909Z" fill="white"/>
</svg>
