<svg width="17" height="16" viewBox="0 0 17 16" fill="none" xmlns="http://www.w3.org/2000/svg">
<path d="M7.99171 15.2345C7.16428 15.2345 6.2683 13.5986 5.86405 11.0147C6.52362 11.0785 7.23284 11.1139 7.99171 11.1139V10.3503C7.2438 10.3515 6.4964 10.3112 5.75294 10.2298C5.59241 8.74237 5.59241 7.24201 5.75294 5.75461C7.24034 5.5941 8.7407 5.5941 10.2281 5.75461C10.3096 6.49807 10.3498 7.24547 10.3487 7.99338H11.1146C11.1146 7.22978 11.0792 6.52056 11.0153 5.86572C13.5993 6.2747 15.2352 7.17068 15.2352 7.99338C15.235 8.48896 15.1843 8.98324 15.0839 9.46855L15.8333 9.62458C16.1909 7.90053 15.9697 6.10667 15.204 4.52113C14.4383 2.93559 13.1709 1.64693 11.5984 0.854958C10.0258 0.0629845 8.23587 -0.188066 6.5061 0.14073C4.77634 0.469526 3.20336 1.3598 2.03104 2.67352C0.85872 3.98725 0.152553 5.65103 0.0220213 7.40693C-0.10851 9.16282 0.343886 10.9127 1.30907 12.3854C2.27425 13.858 3.69831 14.9711 5.36045 15.552C7.02258 16.1329 8.82995 16.1493 10.5023 15.5986L10.2659 14.8728C9.53204 15.114 8.76423 15.2361 7.99171 15.2345ZM15.0839 6.51111C14.247 5.87281 12.8451 5.32907 10.9208 5.05957C10.6466 3.13522 10.1075 1.73333 9.46925 0.896453C10.8492 1.18699 12.1148 1.87275 13.1118 2.87013C14.1087 3.8675 14.7939 5.1334 15.0839 6.51347V6.51111ZM7.99171 0.745153C8.81913 0.745153 9.71511 2.38109 10.1194 4.96501C9.45979 4.90118 8.75057 4.86572 7.99171 4.86572C7.23284 4.86572 6.51889 4.90118 5.86405 4.96501C6.2683 2.38109 7.16428 0.747517 7.99171 0.747517V0.745153ZM6.51416 0.896453C5.87587 1.73333 5.33213 3.13522 5.06263 5.05957C3.13828 5.3338 1.73639 5.87281 0.899511 6.51111C1.19012 5.13221 1.87536 3.86755 2.8718 2.87111C3.86825 1.87466 5.13291 1.18942 6.5118 0.898817L6.51416 0.896453ZM4.96807 5.86099C4.90424 6.52056 4.86878 7.22978 4.86878 7.98865C4.86878 8.74751 4.90424 9.46146 4.96807 10.1163C2.38414 9.70732 0.748211 8.81134 0.748211 7.98865C0.748211 7.16595 2.38178 6.26761 4.96807 5.85862V5.86099ZM0.899511 9.46855C1.73639 10.1068 3.13828 10.6506 5.06263 10.9201C5.33686 12.8444 5.87587 14.2463 6.51416 15.0832C5.1344 14.7931 3.86886 14.1078 2.87189 13.1108C1.87492 12.1139 1.1896 10.8483 0.899511 9.46855Z" fill="white"/>
<path d="M9.97522 9.2251L11.779 15.9036L12.9799 12.8492L16.5662 12.3338L9.97522 9.2251Z" fill="white"/>
</svg>
