<svg width="19" height="19" viewBox="0 0 19 19" fill="none" xmlns="http://www.w3.org/2000/svg">
<path d="M18.5324 9.68092C18.5324 9.0424 18.4706 8.3833 18.3677 7.76538H9.4491V11.4111H14.5572C14.3512 12.5851 13.6715 13.615 12.6623 14.2741L15.7106 16.6428C17.5026 14.9744 18.5324 12.5439 18.5324 9.68092Z" fill="#4280EF"/>
<path d="M9.44886 18.9085C12.0029 18.9085 14.145 18.0641 15.7104 16.6223L12.662 14.2742C11.8175 14.8509 10.7259 15.1805 9.44886 15.1805C6.9772 15.1805 4.89689 13.5121 4.1348 11.2876L1.00403 13.6975C2.61061 16.89 5.86496 18.9085 9.44886 18.9085Z" fill="#34A353"/>
<path d="M4.13488 11.267C3.74353 10.093 3.74353 8.81593 4.13488 7.64189L1.00411 5.21143C-0.334704 7.88906 -0.334704 11.0404 1.00411 13.6975L4.13488 11.267Z" fill="#F6B704"/>
<path d="M9.44886 3.74928C10.7877 3.72869 12.1059 4.24362 13.074 5.17049L15.7722 2.45166C14.0626 0.845087 11.7969 -0.0199935 9.44886 0.00060362C5.86496 0.00060362 2.61061 2.01912 1.00403 5.21168L4.13479 7.64215C4.89689 5.39706 6.9772 3.74928 9.44886 3.74928Z" fill="#E54335"/>
</svg>
