<svg width="22" height="22" viewBox="0 0 22 22" fill="none" xmlns="http://www.w3.org/2000/svg">
<path d="M11 8.09483C10.9911 7.1701 11.2098 6.25663 11.638 5.43013C11.4256 5.41391 11.2123 5.41391 11 5.43013C10.0522 5.43034 9.12057 5.66787 8.29542 6.11967C7.47028 6.57148 6.77962 7.22223 6.29044 8.00883C5.80126 8.79542 5.53015 9.69116 5.50341 10.6092C5.47667 11.5272 5.6952 12.4363 6.13782 13.2484C6.58043 14.0605 7.23211 14.7479 8.02964 15.2441C8.82717 15.7403 9.7435 16.0284 10.6898 16.0804C11.636 16.1324 12.5801 15.9466 13.4304 15.541C14.2807 15.1353 15.0084 14.5237 15.543 13.7653C14.2433 13.4433 13.0913 12.7112 12.2687 11.6844C11.4461 10.6576 10.9997 9.39469 11 8.09483Z" fill="white"/>
<path d="M22 7.76448C22.0047 7.73983 22.0047 7.71453 22 7.68987C21.3685 8.06031 20.6271 8.21488 19.8942 8.12889C19.1614 8.0429 18.4795 7.7213 17.9575 7.21552C17.4355 6.70973 17.1037 6.04897 17.0149 5.33887C16.9262 4.62877 17.0857 3.91034 17.468 3.29845H17.391C17.2776 3.28789 17.1634 3.28789 17.05 3.29845C16.071 3.29845 15.1139 3.57976 14.2999 4.1068C13.4859 4.63384 12.8514 5.38294 12.4768 6.25938C12.1021 7.13582 12.0041 8.10023 12.1951 9.03065C12.3861 9.96107 12.8575 10.8157 13.5498 11.4865C14.2421 12.1573 15.1241 12.6141 16.0843 12.7992C17.0445 12.9843 18.0398 12.8893 18.9443 12.5263C19.8488 12.1632 20.6218 11.5484 21.1658 10.7597C21.7097 9.9709 22 9.04356 22 8.09491C22.0109 7.98502 22.0109 7.87437 22 7.76448Z" fill="white"/>
<path d="M12.1 1.16647C12.1 0.883777 11.9841 0.612666 11.7778 0.412775C11.5716 0.212884 11.2918 0.100586 11 0.100586C10.7083 0.100586 10.4285 0.212884 10.2222 0.412775C10.0159 0.612666 9.90002 0.883777 9.90002 1.16647V3.29822C9.90002 3.58091 10.0159 3.85202 10.2222 4.05192C10.4285 4.25181 10.7083 4.3641 11 4.3641C11.2918 4.3641 11.5716 4.25181 11.7778 4.05192C11.9841 3.85202 12.1 3.58091 12.1 3.29822V1.16647Z" fill="white"/>
<path d="M17.226 18.2952C17.4321 18.4938 17.7109 18.6052 18.0015 18.6052C18.2921 18.6052 18.5709 18.4938 18.777 18.2952C18.9819 18.0955 19.0969 17.8254 19.0969 17.5438C19.0969 17.2622 18.9819 16.9921 18.777 16.7923L17.226 15.2788C17.0189 15.0781 16.7379 14.9653 16.445 14.9653C16.1521 14.9653 15.8711 15.0781 15.664 15.2788C15.4569 15.4795 15.3405 15.7517 15.3405 16.0356C15.3405 16.3194 15.4569 16.5916 15.664 16.7923L17.226 18.2952Z" fill="white"/>
<path d="M9.90002 18.2207V20.3524C9.90002 20.6351 10.0159 20.9062 10.2222 21.1061C10.4285 21.306 10.7083 21.4183 11 21.4183C11.2918 21.4183 11.5716 21.306 11.7778 21.1061C11.9841 20.9062 12.1 20.6351 12.1 20.3524V18.2207C12.1 17.938 11.9841 17.6669 11.7778 17.467C11.5716 17.2671 11.2918 17.1548 11 17.1548C10.7083 17.1548 10.4285 17.2671 10.2222 17.467C10.0159 17.6669 9.90002 17.938 9.90002 18.2207Z" fill="white"/>
<path d="M3.22301 18.2952C3.42911 18.4938 3.7079 18.6052 3.99851 18.6052C4.28911 18.6052 4.56791 18.4938 4.77401 18.2952L6.33601 16.7923C6.54314 16.5916 6.65951 16.3194 6.65951 16.0356C6.65951 15.7517 6.54314 15.4795 6.33601 15.2788C6.12888 15.0781 5.84794 14.9653 5.55501 14.9653C5.26208 14.9653 4.98114 15.0781 4.77401 15.2788L3.22301 16.7923C3.01813 16.9921 2.90314 17.2622 2.90314 17.5438C2.90314 17.8254 3.01813 18.0955 3.22301 18.2952Z" fill="white"/>
<path d="M0 10.7592C0 11.0419 0.115892 11.313 0.322183 11.5129C0.528472 11.7128 0.808262 11.8251 1.1 11.8251H3.3C3.59174 11.8251 3.87153 11.7128 4.07782 11.5129C4.28411 11.313 4.4 11.0419 4.4 10.7592C4.4 10.4765 4.28411 10.2054 4.07782 10.0055C3.87153 9.80566 3.59174 9.69336 3.3 9.69336H1.1C0.808262 9.69336 0.528472 9.80566 0.322183 10.0055C0.115892 10.2054 0 10.4765 0 10.7592Z" fill="white"/>
<path d="M6.336 6.24002C6.4391 6.14094 6.52093 6.02305 6.57678 5.89316C6.63263 5.76327 6.66138 5.62396 6.66138 5.48325C6.66138 5.34254 6.63263 5.20322 6.57678 5.07334C6.52093 4.94345 6.4391 4.82556 6.336 4.72647L4.774 3.22358C4.56357 3.04896 4.29288 2.95772 4.01604 2.96808C3.7392 2.97844 3.47658 3.08965 3.28068 3.27947C3.08478 3.4693 2.97001 3.72377 2.95932 3.99203C2.94862 4.26028 3.04279 4.52257 3.223 4.72647L4.774 6.24002C4.87626 6.33993 4.99792 6.41922 5.13196 6.47333C5.26601 6.52745 5.40979 6.55531 5.555 6.55531C5.70021 6.55531 5.84399 6.52745 5.97803 6.47333C6.11208 6.41922 6.23374 6.33993 6.336 6.24002Z" fill="white"/>
</svg>
