<svg width="12" height="11" viewBox="0 0 12 11" fill="none" xmlns="http://www.w3.org/2000/svg">
<path d="M10.1517 5.38624L8.8991 6.63921C8.68466 6.85324 8.33443 6.85364 8.11959 6.63921C7.90475 6.42437 7.90475 6.07414 8.11959 5.8593L9.37215 4.60633C9.76616 4.21273 9.98343 3.69184 9.98384 3.13934C9.98384 2.62129 9.79575 2.12634 9.45444 1.74612C9.0961 1.34684 8.58535 1.11862 8.01663 1.10322C7.99555 1.10281 7.97488 1.10241 7.9538 1.10241C7.34333 1.10241 6.75069 1.34603 6.3202 1.77611L5.1783 2.91801C4.96346 3.13285 4.61364 3.13244 4.39839 2.91801C4.29462 2.81383 4.23706 2.6752 4.23706 2.52805C4.23706 2.38091 4.29462 2.24228 4.39839 2.1381L5.54029 0.996201C6.19778 0.339114 7.11552 -0.0220611 8.04541 0.00104435C8.92018 0.0249605 9.71144 0.382487 10.2741 1.00836C10.7974 1.59127 11.0856 2.34848 11.0856 3.13893C11.0856 3.98613 10.754 4.78347 10.1517 5.38624Z" fill="#77B5F7"/>
<path d="M6.68086 8.85743L5.53166 10.007C4.8762 10.6625 3.97387 11.0233 3.03303 10.9989C2.16029 10.975 1.37065 10.6171 0.809634 9.99082C0.287532 9.40831 0.000132002 8.65273 0.000132002 7.86187C-0.00756982 7.01548 0.321987 6.21571 0.928405 5.60969L2.18096 4.35713C2.28514 4.25296 2.42337 4.1958 2.57051 4.1958C2.71766 4.1958 2.85629 4.25336 2.96047 4.35713C3.06424 4.46131 3.1218 4.59994 3.1218 4.74709C3.1218 4.89423 3.06424 5.03287 2.96047 5.13705L1.70791 6.38961C1.31269 6.78483 1.09784 7.30653 1.10271 7.8566C1.10271 8.3783 1.29039 8.87527 1.63089 9.25509C1.98801 9.65356 2.49714 9.88137 3.06343 9.89677C3.68566 9.90691 4.30951 9.66977 4.75256 9.22671L5.90176 8.07752C6.11579 7.86309 6.46602 7.86268 6.68126 8.07752C6.8957 8.29277 6.8957 8.64259 6.68086 8.85743Z" fill="#77B5F7"/>
<path d="M3.07906 7.1826L7.22426 3.03739C7.33168 2.92997 7.47275 2.87646 7.61381 2.87646C7.75488 2.87646 7.89594 2.93038 8.00336 3.03739C8.2182 3.25223 8.2182 3.60246 8.00336 3.8173L3.85856 7.96251C3.65021 8.17086 3.28741 8.17086 3.07906 7.96251C2.97529 7.85833 2.91772 7.7197 2.91772 7.57255C2.91772 7.42541 2.97529 7.28677 3.07906 7.1826Z" fill="#77B5F7"/>
</svg>
