<svg width="100" height="125" viewBox="0 0 100 125" fill="none" xmlns="http://www.w3.org/2000/svg">
<path d="M76.3529 44.0608C75.9069 44.0618 75.4752 44.2184 75.1323 44.5036C74.7894 44.7889 74.5568 45.1848 74.4746 45.6232H63.4142V40.8785H69.3336C69.4213 41.3471 69.6808 41.766 70.0613 42.0533C70.4417 42.3405 70.9158 42.4753 71.3904 42.4313C71.8651 42.3872 72.3062 42.1676 72.6274 41.8153C72.9485 41.463 73.1266 41.0034 73.1266 40.5267C73.1266 40.05 72.9485 39.5904 72.6274 39.2381C72.3062 38.8858 71.8651 38.6661 71.3904 38.622C70.9158 38.578 70.4417 38.7128 70.0613 39.0001C69.6808 39.2873 69.4213 39.7062 69.3336 40.1748H63.4142V36.0879H69.9597L72.1511 33.8936C72.4379 34.091 72.7732 34.2062 73.1207 34.2268C73.4682 34.2475 73.8147 34.1727 74.1229 34.0107C74.431 33.8486 74.689 33.6055 74.8689 33.3074C75.0489 33.0094 75.1439 32.6679 75.1438 32.3197C75.1538 32.0625 75.1117 31.8058 75.0201 31.5652C74.9285 31.3246 74.7894 31.105 74.6109 30.9195C74.4324 30.734 74.2184 30.5864 73.9815 30.4855C73.7446 30.3847 73.4898 30.3328 73.2323 30.3328C72.9749 30.3328 72.7202 30.3847 72.4833 30.4855C72.2465 30.5864 72.0324 30.734 71.8539 30.9195C71.6755 31.105 71.5363 31.3246 71.4447 31.5652C71.3532 31.8058 71.3111 32.0625 71.321 32.3197C71.3205 32.7055 71.4378 33.0822 71.657 33.3996L69.6696 35.3842H63.4142V34.0085C63.4152 33.5863 63.3323 33.1682 63.1707 32.7782C63.009 32.3883 62.7715 32.0343 62.4721 31.7367L59.1204 28.3591C58.8225 28.0594 58.4679 27.8218 58.0775 27.6601C57.687 27.4984 57.2684 27.4158 56.8458 27.4171H55.4643V20.3345L57.4517 18.3499C57.8461 18.6204 58.3274 18.7339 58.8011 18.6681C59.2748 18.6022 59.7069 18.3617 60.0126 17.9939C60.3183 17.626 60.4755 17.1573 60.4535 16.6795C60.4315 16.2017 60.2318 15.7494 59.8936 15.4112C59.5554 15.073 59.103 14.8733 58.6252 14.8513C58.1475 14.8293 57.6788 14.9864 57.3109 15.2921C56.9431 15.5978 56.7025 16.0299 56.6367 16.5036C56.5708 16.9774 56.6843 17.4586 56.9549 17.853L54.7635 20.0444V27.4171H50.6736V22.7241C51.1424 22.6367 51.5617 22.3774 51.8492 21.997C52.1367 21.6166 52.2718 21.1425 52.228 20.6677C52.1841 20.1928 51.9644 19.7515 51.6121 19.4302C51.2597 19.1089 50.8001 18.9308 50.3233 18.9308C49.8464 18.9308 49.3867 19.1089 49.0343 19.4302C48.682 19.7515 48.4624 20.1928 48.4185 20.6677C48.3747 21.1425 48.5098 21.6166 48.7973 21.997C49.0849 22.3774 49.504 22.6367 49.9728 22.7241V27.4171H45.2281V16.3538C45.6969 16.2664 46.1162 16.0071 46.4037 15.6267C46.6913 15.2463 46.8264 14.7722 46.7825 14.2974C46.7387 13.8226 46.5189 13.3812 46.1666 13.0599C45.8142 12.7386 45.3546 12.5605 44.8778 12.5605C44.401 12.5605 43.9412 12.7386 43.5889 13.0599C43.2365 13.3812 43.0169 13.8226 42.9731 14.2974C42.9292 14.7722 43.0643 15.2463 43.3519 15.6267C43.6394 16.0071 44.0586 16.2664 44.5273 16.3538V27.4171H39.7798V21.4977C40.2479 21.4103 40.6664 21.1514 40.9534 20.7715C41.2404 20.3916 41.375 19.9183 41.3312 19.4442C41.2873 18.9702 41.068 18.5296 40.7162 18.2088C40.3644 17.888 39.9055 17.7102 39.4294 17.7102C38.9533 17.7102 38.4944 17.888 38.1426 18.2088C37.7908 18.5296 37.5715 18.9702 37.5276 19.4442C37.4838 19.9183 37.6186 20.3916 37.9056 20.7715C38.1926 21.1514 38.6111 21.4103 39.0791 21.4977V27.4171H34.9892V20.8687L32.7978 18.6773C33.0176 18.3602 33.1348 17.9833 33.1338 17.5974C33.1338 17.2191 33.0216 16.8493 32.8114 16.5347C32.6012 16.2201 32.3025 15.975 31.953 15.8302C31.6035 15.6854 31.2188 15.6475 30.8478 15.7213C30.4767 15.7951 30.136 15.9773 29.8685 16.2448C29.601 16.5123 29.4188 16.8532 29.345 17.2242C29.2712 17.5953 29.309 17.9799 29.4538 18.3294C29.5986 18.6789 29.8437 18.9777 30.1582 19.1879C30.4728 19.398 30.8426 19.5102 31.221 19.5102C31.6068 19.5112 31.9838 19.394 32.3009 19.1742L34.2884 21.1617V27.4171H32.9069C32.4843 27.4158 32.0657 27.4984 31.6752 27.6601C31.2847 27.8218 30.9302 28.0594 30.6322 28.3591L27.2718 31.7223C26.9719 32.0196 26.7342 32.3735 26.5725 32.7635C26.4107 33.1535 26.3283 33.5719 26.3299 33.9941V35.3756H19.2472L17.2598 33.391C17.4791 33.0736 17.5963 32.6969 17.5958 32.3111C17.5965 31.8835 17.4538 31.468 17.1907 31.1309C16.9275 30.7939 16.559 30.5548 16.1441 30.4518C15.7291 30.3487 15.2915 30.3876 14.9013 30.5624C14.511 30.7372 14.1906 31.0376 13.9911 31.4158C13.7916 31.794 13.7246 32.2283 13.8008 32.649C13.877 33.0698 14.092 33.4529 14.4114 33.7371C14.7308 34.0214 15.1363 34.1903 15.563 34.2172C15.9898 34.244 16.4132 34.127 16.7657 33.885L18.9572 36.0792H26.3299V40.1662H21.634C21.5463 39.6976 21.2867 39.2787 20.9063 38.9914C20.5258 38.7042 20.0518 38.5694 19.5771 38.6134C19.1024 38.6575 18.6613 38.8772 18.3402 39.2295C18.019 39.5818 17.8409 40.0413 17.8409 40.5181C17.8409 40.9948 18.019 41.4543 18.3402 41.8067C18.6613 42.159 19.1024 42.3787 19.5771 42.4227C20.0518 42.4667 20.5258 42.3319 20.9063 42.0447C21.2867 41.7575 21.5463 41.3384 21.634 40.8699H26.3299V45.6145H15.2666C15.1792 45.1458 14.9199 44.7265 14.5394 44.439C14.159 44.1515 13.6849 44.0164 13.2101 44.0603C12.7353 44.1041 12.294 44.3238 11.9727 44.6761C11.6514 45.0285 11.4733 45.4881 11.4733 45.9649C11.4733 46.4418 11.6514 46.9014 11.9727 47.2538C12.294 47.6061 12.7353 47.8258 13.2101 47.8697C13.6849 47.9135 14.159 47.7785 14.5394 47.4909C14.9199 47.2034 15.1792 46.7842 15.2666 46.3154H26.3299V51.0601H20.4076C20.3202 50.5913 20.061 50.172 19.6806 49.8845C19.3002 49.5969 18.8261 49.4619 18.3513 49.5057C17.8764 49.5496 17.4351 49.7693 17.1138 50.1216C16.7925 50.4739 16.6144 50.9336 16.6144 51.4105C16.6144 51.8873 16.7925 52.347 17.1138 52.6993C17.4351 53.0517 17.8764 53.2713 18.3513 53.3151C18.8261 53.359 19.3002 53.2239 19.6806 52.9364C20.061 52.6489 20.3202 52.2296 20.4076 51.7608H26.3299V55.8507H19.7729L17.5815 58.0421C17.1871 57.7715 16.7059 57.6581 16.2321 57.7239C15.7584 57.7898 15.3263 58.0302 15.0206 58.3981C14.7149 58.7659 14.5577 59.2347 14.5797 59.7125C14.6017 60.1903 14.8015 60.6426 15.1397 60.9808C15.4779 61.319 15.9302 61.5187 16.408 61.5407C16.8858 61.5627 17.3544 61.4055 17.7223 61.0998C18.0902 60.7941 18.3307 60.3621 18.3966 59.8884C18.4624 59.4146 18.3489 58.9333 18.0784 58.5389L20.0629 56.5515H26.3212V57.933C26.3195 58.3556 26.402 58.7744 26.5638 59.1649C26.7255 59.5554 26.9633 59.9099 27.2633 60.2076L30.6235 63.5708C30.9219 63.87 31.2765 64.1073 31.6669 64.269C32.0573 64.4307 32.4758 64.5135 32.8983 64.5129H34.2797V71.5955L32.2922 73.5801C31.8978 73.3095 31.4166 73.196 30.9429 73.2619C30.4691 73.3277 30.0371 73.5682 29.7315 73.9361C29.4258 74.3039 29.2686 74.7727 29.2906 75.2504C29.3126 75.7282 29.5122 76.1806 29.8504 76.5188C30.1886 76.857 30.6409 77.0566 31.1187 77.0787C31.5965 77.1007 32.0653 76.9435 32.4332 76.6378C32.801 76.3322 33.0414 75.9 33.1073 75.4263C33.1732 74.9526 33.0596 74.4713 32.7891 74.0769L34.9806 71.8855V64.5129H39.0704V69.2059C38.6016 69.2932 38.1824 69.5525 37.8949 69.9329C37.6074 70.3134 37.4723 70.7874 37.5161 71.2623C37.56 71.7371 37.7796 72.1784 38.1319 72.4997C38.4843 72.821 38.944 72.9991 39.4208 72.9991C39.8977 72.9991 40.3573 72.821 40.7096 72.4997C41.062 72.1784 41.2817 71.7371 41.3256 71.2623C41.3694 70.7874 41.2343 70.3134 40.9468 69.9329C40.6592 69.5525 40.2399 69.2932 39.7712 69.2059V64.5129H44.5188V75.5761C44.0508 75.6635 43.6323 75.9225 43.3453 76.3024C43.0583 76.6822 42.9235 77.1555 42.9673 77.6296C43.0112 78.1037 43.2305 78.5443 43.5823 78.865C43.9341 79.1858 44.393 79.3636 44.8691 79.3636C45.3452 79.3636 45.8041 79.1858 46.1559 78.865C46.5077 78.5443 46.7272 78.1037 46.771 77.6296C46.8149 77.1555 46.6801 76.6822 46.3931 76.3024C46.1061 75.9225 45.6876 75.6635 45.2196 75.5761V64.5129H49.9642V70.4323C49.4955 70.5196 49.0762 70.7789 48.7886 71.1593C48.5011 71.5397 48.366 72.0138 48.4098 72.4887C48.4537 72.9635 48.6734 73.4048 49.0258 73.7261C49.3781 74.0474 49.8377 74.2255 50.3146 74.2255C50.7914 74.2255 51.2511 74.0474 51.6035 73.7261C51.9558 73.4048 52.1754 72.9635 52.2193 72.4887C52.2631 72.0138 52.128 71.5397 51.8405 71.1593C51.553 70.7789 51.1338 70.5196 50.665 70.4323V64.5129H54.7548V71.0584L56.9463 73.2497C56.6727 73.6449 56.5566 74.1282 56.621 74.6045C56.6853 75.0808 56.9252 75.516 57.2938 75.8245C57.6624 76.133 58.1331 76.2926 58.6133 76.2721C59.0935 76.2515 59.5488 76.0522 59.8896 75.7133C60.2305 75.3744 60.4323 74.9204 60.4556 74.4403C60.479 73.9602 60.3222 73.4887 60.0158 73.1183C59.7095 72.748 59.2757 72.5054 58.7997 72.4383C58.3237 72.3712 57.84 72.4845 57.4432 72.7557L55.4557 70.7683V64.5129H56.8228C57.2453 64.5135 57.6638 64.4307 58.0542 64.269C58.4446 64.1073 58.7991 63.87 59.0974 63.5708L62.4606 60.2076C62.7601 59.9095 62.9976 59.555 63.1593 59.1645C63.321 58.7741 63.4037 58.3555 63.4027 57.933V56.5515H70.4824L72.4699 58.5389C72.2506 58.8563 72.1334 59.2331 72.1339 59.6188C72.1327 60.0478 72.2754 60.4648 72.539 60.8031C72.8027 61.1415 73.1721 61.3817 73.5883 61.4855C74.0045 61.5892 74.4435 61.5505 74.8351 61.3755C75.2268 61.2005 75.5484 60.8993 75.7488 60.52C75.9491 60.1407 76.0167 59.7052 75.9405 59.2831C75.8643 58.861 75.6488 58.4766 75.3285 58.1913C75.0082 57.906 74.6014 57.7362 74.1733 57.7092C73.7452 57.6822 73.3204 57.7993 72.9667 58.0421L70.7724 55.8507H63.4027V51.7608H68.0957C68.183 52.2289 68.442 52.6474 68.8218 52.9344C69.2017 53.2214 69.6751 53.3561 70.1492 53.3122C70.6233 53.2684 71.0638 53.0491 71.3846 52.6973C71.7053 52.3455 71.8831 51.8866 71.8831 51.4105C71.8831 50.9344 71.7053 50.4754 71.3846 50.1236C71.0638 49.7718 70.6233 49.5525 70.1492 49.5086C69.6751 49.4648 69.2017 49.5996 68.8218 49.8866C68.442 50.1736 68.183 50.5921 68.0957 51.0601H63.4027V46.3154H74.4631C74.528 46.6729 74.6935 47.0045 74.94 47.2714C75.1866 47.5383 75.504 47.7295 75.8552 47.8226C76.2065 47.9157 76.5771 47.9067 76.9234 47.7969C77.2698 47.687 77.5776 47.4808 77.811 47.2023C78.0444 46.9239 78.1937 46.5847 78.2414 46.2244C78.289 45.8642 78.2331 45.4978 78.0801 45.1682C77.9271 44.8386 77.6835 44.5595 77.3777 44.3633C77.0718 44.1672 76.7163 44.0623 76.3529 44.0608ZM71.2119 39.3161C71.4518 39.3155 71.6864 39.3861 71.8861 39.5189C72.0857 39.6518 72.2415 39.8409 72.3337 40.0623C72.4259 40.2837 72.4503 40.5275 72.4038 40.7628C72.3574 40.9981 72.2422 41.2143 72.0728 41.3841C71.9035 41.5539 71.6875 41.6696 71.4523 41.7166C71.2171 41.7636 70.9733 41.7398 70.7517 41.6481C70.53 41.5565 70.3406 41.4012 70.2073 41.2018C70.074 41.0024 70.0028 40.7679 70.0028 40.5281C70.0017 40.3687 70.0319 40.2107 70.092 40.063C70.152 39.9153 70.2406 39.7809 70.3527 39.6675C70.4647 39.5541 70.598 39.464 70.7449 39.4022C70.8919 39.3404 71.0496 39.3082 71.209 39.3075L71.2119 39.3161ZM73.2224 31.1076C73.4622 31.1071 73.6968 31.1777 73.8965 31.3106C74.0962 31.4434 74.252 31.6324 74.3442 31.8539C74.4363 32.0753 74.4607 32.3191 74.4143 32.5544C74.3678 32.7897 74.2527 33.0059 74.0833 33.1757C73.9139 33.3455 73.6979 33.4612 73.4628 33.5082C73.2276 33.5552 72.9838 33.5314 72.7621 33.4397C72.5405 33.3481 72.351 33.1927 72.2177 32.9934C72.0844 32.794 72.0132 32.5596 72.0132 32.3197C72.0121 32.1596 72.0427 32.0008 72.1033 31.8526C72.1639 31.7044 72.2531 31.5696 72.3661 31.4561C72.4791 31.3426 72.6135 31.2526 72.7614 31.1913C72.9094 31.13 73.068 31.0987 73.2281 31.0991L73.2224 31.1076ZM58.5115 15.5697C58.7512 15.5697 58.9856 15.6408 59.1849 15.774C59.3842 15.9071 59.5396 16.0964 59.6313 16.3179C59.723 16.5394 59.7471 16.7831 59.7003 17.0182C59.6535 17.2533 59.538 17.4692 59.3685 17.6387C59.199 17.8082 58.9831 17.9237 58.7479 17.9705C58.5128 18.0172 58.2692 17.9932 58.0477 17.9015C57.8263 17.8097 57.6369 17.6544 57.5038 17.4551C57.3706 17.2558 57.2996 17.0214 57.2996 16.7817C57.2984 16.6214 57.3291 16.4623 57.3899 16.3139C57.4506 16.1655 57.5403 16.0306 57.6535 15.9171C57.7668 15.8035 57.9014 15.7136 58.0497 15.6525C58.198 15.5914 58.3569 15.5603 58.5173 15.5611L58.5115 15.5697ZM49.0911 20.8514C49.0911 20.6117 49.1621 20.3774 49.2953 20.1781C49.4285 19.9788 49.6178 19.8234 49.8393 19.7317C50.0608 19.64 50.3044 19.6159 50.5395 19.6627C50.7746 19.7095 50.9907 19.8249 51.1602 19.9944C51.3297 20.164 51.4451 20.3799 51.4919 20.615C51.5386 20.8501 51.5146 21.0938 51.4229 21.3153C51.3311 21.5368 51.1758 21.726 50.9765 21.8592C50.7772 21.9924 50.5428 22.0635 50.3031 22.0635C49.9814 22.0612 49.6738 21.9314 49.4476 21.7026C49.2215 21.4737 49.0953 21.1645 49.0969 20.8428L49.0911 20.8514ZM43.6342 14.4841C43.6336 14.2442 43.7041 14.0096 43.8369 13.8099C43.9698 13.6102 44.159 13.4544 44.3804 13.3622C44.6018 13.27 44.8456 13.2457 45.0809 13.2921C45.3162 13.3385 45.5323 13.4537 45.7021 13.6231C45.8719 13.7925 45.9876 14.0085 46.0346 14.2437C46.0816 14.4789 46.0578 14.7227 45.9662 14.9443C45.8745 15.166 45.7192 15.3554 45.5198 15.4887C45.3204 15.622 45.0859 15.6932 44.8461 15.6932C44.5272 15.6887 44.2229 15.5586 43.9992 15.3312C43.7755 15.1037 43.6506 14.7973 43.6514 14.4783L43.6342 14.4841ZM38.1772 19.6251C38.1772 19.3852 38.2484 19.1508 38.3817 18.9514C38.515 18.752 38.7044 18.5967 38.9261 18.505C39.1477 18.4134 39.3915 18.3895 39.6267 18.4365C39.8619 18.4835 40.0779 18.5993 40.2473 18.769C40.4167 18.9388 40.5318 19.1551 40.5782 19.3904C40.6247 19.6257 40.6003 19.8694 40.5081 20.0909C40.4159 20.3123 40.2602 20.5014 40.0605 20.6342C39.8608 20.767 39.6262 20.8376 39.3863 20.8371C39.0689 20.8288 38.7673 20.6963 38.5466 20.468C38.3258 20.2398 38.2036 19.934 38.206 19.6164L38.1772 19.6251ZM31.1779 18.8181C30.9382 18.8181 30.7039 18.7469 30.5046 18.6137C30.3053 18.4806 30.1498 18.2913 30.0581 18.0698C29.9664 17.8483 29.9425 17.6046 29.9892 17.3695C30.036 17.1344 30.1514 16.9185 30.3209 16.749C30.4904 16.5795 30.7063 16.464 30.9415 16.4172C31.1766 16.3705 31.4202 16.3945 31.6417 16.4862C31.8631 16.578 32.0525 16.7333 32.1857 16.9326C32.3188 17.1319 32.39 17.3663 32.39 17.606C32.3878 17.921 32.2631 18.2228 32.0422 18.4475C31.8213 18.6721 31.5216 18.802 31.2066 18.8094L31.1779 18.8181ZM15.6399 33.5289C15.4001 33.5289 15.1657 33.4577 14.9663 33.3244C14.7669 33.1911 14.6116 33.0016 14.5199 32.78C14.4283 32.5584 14.4044 32.3145 14.4514 32.0793C14.4984 31.8441 14.6141 31.6282 14.7839 31.4588C14.9537 31.2894 15.17 31.1742 15.4053 31.1278C15.6406 31.0813 15.8843 31.1057 16.1058 31.1979C16.3272 31.2901 16.5162 31.4458 16.649 31.6455C16.7819 31.8452 16.8525 32.0799 16.852 32.3197C16.8491 32.6343 16.724 32.9353 16.5032 33.1593C16.2824 33.3834 15.9831 33.5128 15.6686 33.5202L15.6399 33.5289ZM19.7126 41.7372C19.4727 41.7372 19.2382 41.6661 19.0389 41.5328C18.8395 41.3995 18.6841 41.21 18.5925 40.9884C18.5008 40.7667 18.477 40.5229 18.524 40.2877C18.571 40.0525 18.6868 39.8366 18.8565 39.6672C19.0263 39.4978 19.2425 39.3826 19.4778 39.3361C19.7131 39.2897 19.9569 39.3142 20.1783 39.4063C20.3997 39.4985 20.5889 39.6543 20.7217 39.854C20.8545 40.0537 20.9251 40.2883 20.9245 40.5281C20.9216 40.8426 20.7967 41.1437 20.5759 41.3678C20.3551 41.5918 20.0558 41.7212 19.7413 41.7286L19.7126 41.7372ZM13.3452 47.1942C13.1052 47.1948 12.8705 47.1241 12.6708 46.9911C12.471 46.8582 12.3152 46.6689 12.2231 46.4474C12.131 46.2258 12.1067 45.9818 12.1534 45.7464C12.2001 45.5111 12.3156 45.2949 12.4852 45.1252C12.6549 44.9555 12.8711 44.84 13.1065 44.7933C13.3419 44.7466 13.5858 44.7709 13.8074 44.863C14.029 44.9551 14.2183 45.1109 14.3512 45.3106C14.4842 45.5104 14.5549 45.7451 14.5543 45.9851C14.5485 46.2971 14.4225 46.5949 14.2026 46.8164C13.9827 47.0379 13.6859 47.1661 13.3739 47.1741L13.3452 47.1942ZM18.4862 52.6512C18.2463 52.6517 18.0117 52.5811 17.812 52.4483C17.6124 52.3155 17.4566 52.1264 17.3644 51.9049C17.2722 51.6835 17.2477 51.4398 17.2941 51.2045C17.3406 50.9692 17.4559 50.7529 17.6252 50.5831C17.7946 50.4133 18.0106 50.2976 18.2458 50.2506C18.481 50.2036 18.7248 50.2275 18.9464 50.3191C19.1681 50.4108 19.3575 50.5661 19.4908 50.7655C19.6241 50.9649 19.6953 51.1993 19.6953 51.4391C19.6873 51.75 19.5605 52.0459 19.3409 52.2661C19.1213 52.4862 18.8257 52.6138 18.5149 52.6225L18.4862 52.6512ZM16.4757 60.8596C16.2359 60.8602 16.0013 60.7896 15.8016 60.6567C15.6019 60.5239 15.4461 60.3348 15.3539 60.1134C15.2618 59.892 15.2372 59.6482 15.2837 59.4129C15.3301 59.1776 15.4454 58.9614 15.6148 58.7916C15.7842 58.6218 16.0002 58.5061 16.2353 58.4591C16.4705 58.4121 16.7143 58.4359 16.936 58.5276C17.1576 58.6192 17.3471 58.7746 17.4804 58.9739C17.6137 59.1733 17.6849 59.4077 17.6849 59.6476C17.6775 59.9601 17.5497 60.2576 17.3281 60.4781C17.1065 60.6986 16.8083 60.825 16.4958 60.8308L16.4757 60.8596ZM31.1866 76.3947C30.9476 76.3941 30.714 76.3228 30.5156 76.1895C30.3171 76.0563 30.1625 75.8673 30.0714 75.6463C29.9803 75.4253 29.9568 75.1822 30.0038 74.9479C30.0508 74.7135 30.1663 74.4984 30.3355 74.3296C30.5047 74.1608 30.72 74.0459 30.9545 73.9994C31.189 73.953 31.432 73.9771 31.6527 74.0687C31.8735 74.1603 32.0622 74.3153 32.1949 74.514C32.3276 74.7128 32.3985 74.9466 32.3985 75.1856C32.3904 75.4981 32.2619 75.7953 32.0398 76.0153C31.8177 76.2353 31.5192 76.3609 31.2066 76.366L31.1866 76.3947ZM40.607 71.1129C40.6075 71.3528 40.5369 71.5873 40.4041 71.787C40.2712 71.9867 40.0822 72.1426 39.8608 72.2348C39.6393 72.3269 39.3956 72.3513 39.1603 72.3049C38.925 72.2584 38.7087 72.1432 38.5389 71.9738C38.3691 71.8045 38.2534 71.5885 38.2064 71.3533C38.1594 71.1181 38.1833 70.8743 38.275 70.6527C38.3666 70.431 38.522 70.2416 38.7213 70.1082C38.9207 69.9749 39.1551 69.9038 39.3949 69.9038C39.7144 69.8984 40.0232 70.0194 40.254 70.2404C40.4847 70.4615 40.6187 70.7648 40.627 71.0842L40.607 71.1129ZM46.0639 77.4833C46.0639 77.7231 45.9928 77.9575 45.8595 78.1569C45.7262 78.3563 45.5367 78.5116 45.3151 78.6033C45.0934 78.6949 44.8496 78.7187 44.6144 78.6717C44.3792 78.6247 44.1633 78.509 43.9939 78.3392C43.8245 78.1694 43.7092 77.9532 43.6628 77.7179C43.6163 77.4826 43.6409 77.2388 43.733 77.0174C43.8252 76.796 43.981 76.6069 44.1807 76.4741C44.3804 76.3413 44.615 76.2706 44.8548 76.2712C45.1723 76.2696 45.4778 76.3927 45.7055 76.614C45.9332 76.8353 46.065 77.1371 46.0725 77.4545L46.0639 77.4833ZM51.5209 72.3393C51.5215 72.5793 51.4508 72.814 51.3178 73.0138C51.1849 73.2135 50.9956 73.3693 50.774 73.4614C50.5524 73.5535 50.3085 73.5777 50.0731 73.531C49.8377 73.4844 49.6215 73.3689 49.4518 73.1992C49.2821 73.0295 49.1667 72.8133 49.12 72.5779C49.0733 72.3425 49.0976 72.0986 49.1897 71.877C49.2818 71.6554 49.4376 71.4662 49.6374 71.3332C49.8371 71.2003 50.0718 71.1296 50.3118 71.1302C50.6268 71.1316 50.9289 71.2556 51.154 71.4759C51.3792 71.6963 51.5097 71.9957 51.518 72.3106L51.5209 72.3393ZM58.5202 73.1493C58.7599 73.1493 58.9942 73.2203 59.1935 73.3535C59.3928 73.4867 59.5481 73.676 59.6399 73.8974C59.7316 74.1189 59.7556 74.3626 59.7089 74.5977C59.6621 74.8328 59.5467 75.0488 59.3772 75.2183C59.2077 75.3878 58.9918 75.5032 58.7566 75.55C58.5215 75.5968 58.2778 75.5727 58.0563 75.481C57.8348 75.3893 57.6456 75.2339 57.5124 75.0346C57.3793 74.8353 57.3081 74.601 57.3081 74.3613C57.3043 74.1999 57.3327 74.0395 57.3917 73.8893C57.4507 73.7391 57.5392 73.6022 57.6518 73.4867C57.7645 73.3711 57.899 73.2792 58.0476 73.2163C58.1962 73.1534 58.3559 73.1208 58.5173 73.1205L58.5202 73.1493ZM74.0553 58.4212C74.2951 58.4212 74.5296 58.4924 74.729 58.6257C74.9283 58.759 75.0837 58.9484 75.1753 59.1701C75.267 59.3917 75.2908 59.6355 75.2438 59.8707C75.1968 60.1059 75.0811 60.3219 74.9113 60.4913C74.7415 60.6606 74.5252 60.7758 74.2899 60.8223C74.0546 60.8687 73.8108 60.8443 73.5894 60.7522C73.368 60.66 73.1789 60.5042 73.0461 60.3045C72.9133 60.1048 72.8426 59.8702 72.8432 59.6303C72.8439 59.3094 72.972 59.0018 73.1992 58.7752C73.4265 58.5485 73.7343 58.4212 74.0553 58.4212ZM69.9826 50.2128C70.2226 50.2122 70.4574 50.2829 70.6571 50.4158C70.8569 50.5488 71.0127 50.7381 71.1048 50.9597C71.1969 51.1813 71.221 51.4252 71.1743 51.6606C71.1277 51.896 71.0122 52.1122 70.8425 52.2818C70.6729 52.4515 70.4567 52.567 70.2213 52.6136C69.9859 52.6603 69.742 52.6361 69.5204 52.544C69.2988 52.4519 69.1095 52.2961 68.9765 52.0964C68.8436 51.8966 68.7729 51.6618 68.7735 51.4219C68.7723 51.2622 68.8027 51.1039 68.8629 50.9561C68.9232 50.8082 69.0121 50.6738 69.1245 50.5603C69.2368 50.4469 69.3704 50.3568 69.5177 50.2952C69.665 50.2336 69.8229 50.2016 69.9826 50.2013V50.2128ZM62.7077 57.9445C62.7085 58.2751 62.6439 58.6025 62.5177 58.9081C62.3915 59.2137 62.2062 59.4914 61.9725 59.7251L58.6093 63.0855C58.3767 63.3203 58.0997 63.5065 57.7945 63.6332C57.4892 63.76 57.1618 63.8247 56.8313 63.8236H32.8926C32.5621 63.8247 32.2347 63.76 31.9294 63.6332C31.6242 63.5065 31.3473 63.3203 31.1148 63.0855L27.7515 59.7251C27.5177 59.4914 27.3324 59.2137 27.2062 58.9081C27.08 58.6025 27.0156 58.2751 27.0163 57.9445V34.0085C27.0158 33.6783 27.0805 33.3513 27.2066 33.0462C27.3328 32.7411 27.5179 32.464 27.7515 32.2307L31.1148 28.8675C31.3478 28.6335 31.6248 28.4481 31.93 28.3219C32.2351 28.1957 32.5624 28.1312 32.8926 28.1322H56.8228C57.153 28.1312 57.4801 28.1957 57.7852 28.3219C58.0904 28.4481 58.3675 28.6335 58.6006 28.8675L61.9638 32.2307C62.1973 32.464 62.3825 32.7411 62.5087 33.0462C62.6349 33.3513 62.6996 33.6783 62.699 34.0085L62.7077 57.9445ZM76.3501 47.1856C76.1103 47.1856 75.8758 47.1145 75.6764 46.9812C75.477 46.8479 75.3217 46.6584 75.23 46.4368C75.1384 46.2151 75.1146 45.9712 75.1616 45.7361C75.2086 45.5009 75.3243 45.2849 75.4941 45.1155C75.6639 44.9461 75.8801 44.8309 76.1154 44.7845C76.3507 44.738 76.5944 44.7625 76.8159 44.8547C77.0373 44.9468 77.2264 45.1026 77.3593 45.3023C77.4921 45.502 77.5626 45.7366 77.5621 45.9764C77.5583 46.2949 77.4293 46.5991 77.2031 46.8232C76.9768 47.0473 76.6714 47.1734 76.3529 47.1741L76.3501 47.1856Z" fill="url(#paint0_linear_504_9528)"/>
<path d="M51.9381 37.2398C51.7759 37.0769 51.5829 36.9478 51.3705 36.8601C51.158 36.7723 50.9302 36.7276 50.7003 36.7285H39.0138C38.7842 36.7272 38.5568 36.7717 38.3447 36.8595C38.1326 36.9473 37.9403 37.0766 37.7788 37.2398L36.1417 38.8912C35.9784 39.0533 35.8489 39.2462 35.7607 39.4587C35.6724 39.6712 35.6272 39.899 35.6276 40.1291V51.8156C35.6272 52.0457 35.6724 52.2735 35.7607 52.486C35.8489 52.6985 35.9784 52.8914 36.1417 53.0535L37.7846 54.6963C37.946 54.8595 38.1384 54.9888 38.3504 55.0766C38.5625 55.1644 38.79 55.2089 39.0195 55.2076H50.7118C50.9403 55.2058 51.1663 55.159 51.3768 55.0698C51.5872 54.9806 51.778 54.8507 51.9381 54.6877L53.5781 53.0449C53.7421 52.8833 53.8721 52.6906 53.9604 52.478C54.0487 52.2653 54.0935 52.0372 54.0922 51.807V40.1176C54.0935 39.8874 54.0487 39.6593 53.9604 39.4466C53.8721 39.234 53.7421 39.0413 53.5781 38.8797L51.9381 37.2398ZM53.3914 51.8099C53.392 51.9476 53.3651 52.0841 53.3123 52.2113C53.2596 52.3385 53.1821 52.454 53.0842 52.5509L51.4413 54.1937C51.3442 54.2913 51.2287 54.3687 51.1015 54.4215C50.9743 54.4742 50.8379 54.5013 50.7003 54.501H39.0138C38.8761 54.5013 38.7397 54.4742 38.6125 54.4215C38.4854 54.3687 38.3698 54.2913 38.2727 54.1937L36.63 52.5509C36.5321 52.454 36.4544 52.3385 36.4017 52.2113C36.3489 52.0841 36.322 51.9476 36.3226 51.8099V40.1205C36.3221 39.9823 36.3491 39.8455 36.4018 39.7178C36.4546 39.5901 36.5322 39.4741 36.63 39.3766L38.2727 37.7366C38.3698 37.639 38.4854 37.5616 38.6125 37.5089C38.7397 37.4562 38.8761 37.4291 39.0138 37.4293H50.706C50.8437 37.4291 50.9801 37.4562 51.1072 37.5089C51.2344 37.5616 51.3499 37.639 51.447 37.7366L53.0898 39.3766C53.1876 39.4741 53.2652 39.5901 53.318 39.7178C53.3707 39.8455 53.3977 39.9823 53.3972 40.1205L53.3914 51.8099Z" fill="url(#paint1_linear_504_9528)"/>
<path d="M57.6178 29.8469C57.5148 29.743 57.3922 29.6605 57.2571 29.6043C57.1221 29.5481 56.9771 29.5193 56.8308 29.5195H32.8921C32.7458 29.5196 32.601 29.5486 32.4659 29.6048C32.3309 29.661 32.2083 29.7433 32.1051 29.8469L28.7419 33.2101C28.6386 33.3128 28.5567 33.435 28.501 33.5696C28.4452 33.7042 28.4169 33.8485 28.4174 33.9942V57.933C28.4166 58.0792 28.445 58.224 28.5007 58.3591C28.5564 58.4942 28.6383 58.6169 28.7419 58.72L32.1051 62.0832C32.2084 62.1865 32.3311 62.2683 32.4662 62.324C32.6013 62.3797 32.746 62.4081 32.8921 62.4077H56.8223C56.9684 62.4084 57.1132 62.3802 57.2483 62.3245C57.3834 62.2688 57.5061 62.1867 57.6093 62.0832L60.9725 58.72C61.076 58.6169 61.158 58.4942 61.2137 58.3591C61.2694 58.224 61.2977 58.0792 61.297 57.933V34.0086C61.2975 33.8629 61.2691 33.7186 61.2134 33.584C61.1577 33.4494 61.0758 33.3272 60.9725 33.2245L57.6178 29.8469ZM60.6048 57.933C60.6038 58.0409 60.5605 58.1441 60.4842 58.2203L57.1095 61.5806C57.0335 61.6572 56.9302 61.7006 56.8223 61.7012H32.8834C32.7755 61.7006 32.6722 61.6572 32.5962 61.5806L29.233 58.2203C29.1566 58.1441 29.1133 58.0409 29.1124 57.933V34.0086C29.113 33.9006 29.1564 33.7974 29.233 33.7214L32.5962 30.3582C32.6722 30.2815 32.7755 30.2382 32.8834 30.2376H56.8223C56.9302 30.2382 57.0335 30.2815 57.1095 30.3582L60.4727 33.7214C60.5493 33.7974 60.5926 33.9006 60.5933 34.0086L60.6048 57.933Z" fill="url(#paint2_linear_504_9528)"/>
<path d="M42.188 42.2969L39.6318 49.6321H41.243L41.7946 47.8543H44.3795L44.9309 49.6321H46.5478L43.9917 42.2969H42.188ZM42.1536 46.7026L43.0783 43.7185H43.1099L44.032 46.7026H42.1536Z" fill="url(#paint3_linear_504_9528)"/>
<path d="M48.8463 42.2949H47.3097V49.6331H48.8463V42.2949Z" fill="url(#paint4_linear_504_9528)"/>
<path d="M46.305 124.933C33.0529 124.945 20.0595 121.265 8.78124 114.307C7.77211 113.687 7.02805 112.715 6.69239 111.579C6.35673 110.443 6.45318 109.223 6.96319 108.154C13.0951 95.2962 14.5226 79.1752 14.5369 79.0143C14.5353 78.9991 14.5353 78.9837 14.5369 78.9684C14.6462 78.4389 14.619 77.8903 14.4577 77.3742C14.2964 76.8582 14.0064 76.3918 13.615 76.0188C10.0675 72.6422 7.1071 68.6985 4.85513 64.3494C2.53556 59.8677 1.01912 55.0142 0.374646 50.0091C-0.106905 46.292 -0.124322 42.5294 0.322898 38.808C0.753309 35.2534 1.6166 31.7648 2.89347 28.4197C5.39435 21.893 9.40447 16.0509 14.596 11.3711C19.7874 6.69123 26.0129 3.30661 32.7632 1.49392C39.9937 -0.416939 47.5865 -0.495921 54.8552 1.26414C74.5692 5.91117 88.3237 23.5774 88.3064 44.2248V44.8423C88.3012 49.1227 89.5037 53.3177 91.7759 56.9453C93.7282 60.1335 95.8849 63.1919 98.2324 66.1014C98.6943 66.6594 99.0115 67.3226 99.1561 68.0323C99.3008 68.7421 99.2683 69.4765 99.0616 70.1707C98.8549 70.865 98.4803 71.4976 97.971 72.0126C97.4617 72.5277 96.8333 72.9092 96.1414 73.1237C95.1075 73.4425 91.3795 73.6608 90.133 73.724C90.1876 76.8517 90.8625 78.641 91.2819 79.4451C91.488 79.8544 91.5576 80.3189 91.4806 80.7706C91.4036 81.2223 91.1841 81.6375 90.854 81.9553C90.2214 82.6014 89.5034 83.158 88.72 83.6097C89.2347 84.2998 89.6183 85.0786 89.8516 85.9073C90.0041 86.4493 89.9446 87.029 89.6854 87.5288C89.4262 88.0285 88.9866 88.411 88.4558 88.5985C87.5683 88.9173 86.5084 89.6898 86.5084 91.5625C86.5084 92.628 86.5084 93.2857 86.5084 94.0008V97.028C86.5084 98.5883 85.8889 100.085 84.7859 101.188C83.6829 102.292 82.1867 102.912 80.6264 102.913C78.1687 102.911 75.7311 102.47 73.429 101.609H73.4061L62.3599 96.8098C61.5586 99.139 60.8263 104.817 63.4715 118.046C63.5955 118.669 63.5946 119.311 63.4688 119.933C63.343 120.556 63.0948 121.147 62.7387 121.673C62.3826 122.199 61.9257 122.65 61.3942 122.998C60.8628 123.346 60.2675 123.585 59.6429 123.701C55.2449 124.526 50.7796 124.938 46.305 124.933ZM15.364 79.1005C15.3324 79.4423 14.9648 83.4402 13.8935 88.8656C12.8624 94.0784 10.9554 101.718 7.71571 108.513C7.29388 109.397 7.21425 110.406 7.49217 111.344C7.77009 112.283 8.38579 113.086 9.22061 113.597C20.3659 120.476 33.2077 124.113 46.305 124.1C50.7249 124.1 55.1353 123.69 59.4793 122.874C59.9947 122.777 60.4859 122.579 60.9243 122.291C61.3627 122.003 61.7397 121.631 62.0335 121.196C62.3272 120.762 62.5319 120.273 62.6358 119.759C62.7397 119.245 62.7406 118.716 62.6386 118.201C61.4151 112.078 59.6659 101.058 61.7252 96.086C61.7459 96.0349 61.7767 95.9884 61.8157 95.9495C61.8546 95.9105 61.901 95.8798 61.9521 95.8591C62.0031 95.8378 62.0577 95.8268 62.113 95.8268C62.1682 95.8268 62.2229 95.8378 62.2738 95.8591L73.7104 100.831C75.9157 101.653 78.2499 102.075 80.6034 102.077C81.2667 102.077 81.9235 101.947 82.5363 101.693C83.1491 101.439 83.7058 101.066 84.1747 100.597C84.6436 100.128 85.0154 99.5712 85.269 98.9583C85.5226 98.3454 85.6529 97.6885 85.6526 97.0252V93.998C85.6526 93.2944 85.6526 92.6251 85.6526 91.5596C85.6526 89.081 87.2121 88.1504 88.1484 87.8259C88.482 87.7113 88.7597 87.4745 88.9254 87.1632C89.0912 86.8519 89.1328 86.4893 89.0417 86.1486C88.7992 85.2675 88.3558 84.4545 87.7463 83.7734C87.6965 83.7243 87.6599 83.6634 87.6399 83.5964C87.6198 83.5294 87.617 83.4584 87.6316 83.3901C87.6462 83.3217 87.6778 83.258 87.7235 83.2051C87.7691 83.1521 87.8274 83.1115 87.8929 83.0869C88.5448 82.8428 89.3634 82.2512 90.2623 81.3637C90.4681 81.1715 90.6052 80.9174 90.6529 80.6399C90.7006 80.3625 90.6563 80.077 90.5266 79.8271C89.9665 78.7243 89.2972 76.7023 89.2972 73.3333C89.2978 73.226 89.3396 73.123 89.4139 73.0456C89.4882 72.9681 89.5893 72.922 89.6965 72.9169C91.1038 72.8537 94.9667 72.6297 95.8973 72.3425C96.4578 72.1746 96.9677 71.8694 97.3804 71.4546C97.7932 71.0399 98.0958 70.5286 98.261 69.9673C98.4305 69.401 98.4582 68.8017 98.3415 68.2222C98.2248 67.6427 97.9674 67.1008 97.5919 66.6442C95.221 63.7078 93.0432 60.6205 91.0722 57.4019C88.7185 53.6411 87.4723 49.2932 87.4764 44.8566V44.2392C87.4936 23.9795 74.0006 6.64642 54.6657 2.08842C47.5304 0.359554 40.0766 0.436558 32.9786 2.31246C24.6241 4.54014 17.1278 9.21736 11.4543 15.742C5.7809 22.2667 2.19017 30.3401 1.14442 38.9229C0.708012 42.5729 0.725287 46.2629 1.19602 49.9087C1.82794 54.8203 3.31526 59.5833 5.5904 63.9819C7.79971 68.2491 10.7048 72.1181 14.1865 75.43C14.6744 75.8942 15.0381 76.4736 15.2439 77.1149C15.4496 77.7563 15.4909 78.439 15.364 79.1005Z" fill="url(#paint5_linear_504_9528)"/>
<defs>
<linearGradient id="paint0_linear_504_9528" x1="12.0814" y1="45.965" x2="78.0876" y2="45.965" gradientUnits="userSpaceOnUse">
<stop stop-color="#C74EC7"/>
<stop offset="1" stop-color="#7575FB"/>
</linearGradient>
<linearGradient id="paint1_linear_504_9528" x1="35.7957" y1="45.9689" x2="54.0452" y2="45.9689" gradientUnits="userSpaceOnUse">
<stop stop-color="#C74EC7"/>
<stop offset="1" stop-color="#7575FB"/>
</linearGradient>
<linearGradient id="paint2_linear_504_9528" x1="28.7167" y1="45.9651" x2="61.2132" y2="45.9651" gradientUnits="userSpaceOnUse">
<stop stop-color="#C74EC7"/>
<stop offset="1" stop-color="#7575FB"/>
</linearGradient>
<linearGradient id="paint3_linear_504_9528" x1="39.6948" y1="45.9648" x2="46.5302" y2="45.9648" gradientUnits="userSpaceOnUse">
<stop stop-color="#C74EC7"/>
<stop offset="1" stop-color="#7575FB"/>
</linearGradient>
<linearGradient id="paint4_linear_504_9528" x1="47.3237" y1="45.9643" x2="48.8423" y2="45.9643" gradientUnits="userSpaceOnUse">
<stop stop-color="#C74EC7"/>
<stop offset="1" stop-color="#7575FB"/>
</linearGradient>
<linearGradient id="paint5_linear_504_9528" x1="0.00699281" y1="62.4712" x2="99.2548" y2="62.4712" gradientUnits="userSpaceOnUse">
<stop stop-color="#C74EC7"/>
<stop offset="1" stop-color="#7575FB"/>
</linearGradient>
</defs>
</svg>
