<svg width="38" height="26" viewBox="0 0 38 26" fill="none" xmlns="http://www.w3.org/2000/svg">
<path d="M37.2692 14H15.3462C15.1523 14 14.9665 13.8946 14.8294 13.7071C14.6924 13.5196 14.6154 13.2652 14.6154 13C14.6154 12.7348 14.6924 12.4804 14.8294 12.2929C14.9665 12.1054 15.1523 12 15.3462 12H37.2692C37.463 12 37.6489 12.1054 37.786 12.2929C37.923 12.4804 38 12.7348 38 13C38 13.2652 37.923 13.5196 37.786 13.7071C37.6489 13.8946 37.463 14 37.2692 14Z" fill="white"/>
<path d="M0.73077 0H37.2692C37.463 0 37.6489 0.105356 37.786 0.292892C37.923 0.480429 38 0.734784 38 1C38 1.26522 37.923 1.51957 37.786 1.70711C37.6489 1.89464 37.463 2 37.2692 2H0.73077C0.536957 2 0.351097 1.89464 0.21405 1.70711C0.0770035 1.51957 0 1.26522 0 1C0 0.734784 0.0770035 0.480429 0.21405 0.292892C0.351097 0.105356 0.536957 0 0.73077 0Z" fill="white"/>
<path d="M0.73077 24H37.2692C37.463 24 37.6489 24.1054 37.786 24.2929C37.923 24.4804 38 24.7348 38 25C38 25.2652 37.923 25.5196 37.786 25.7071C37.6489 25.8946 37.463 26 37.2692 26H0.73077C0.536957 26 0.351097 25.8946 0.21405 25.7071C0.0770035 25.5196 0 25.2652 0 25C0 24.7348 0.0770035 24.4804 0.21405 24.2929C0.351097 24.1054 0.536957 24 0.73077 24Z" fill="white"/>
</svg>
