<svg width="71" height="19" viewBox="0 0 71 19" fill="none" xmlns="http://www.w3.org/2000/svg">
<path fill-rule="evenodd" clip-rule="evenodd" d="M9.047 0.00815648C11.3552 0.00815648 13.4922 1.26423 13.1986 4.38809C12.8478 8.0992 10.8577 10.1546 7.71752 10.1627H4.977C4.5855 10.1627 4.38975 10.4808 4.29188 11.1415L3.76172 14.5101C3.68016 15.0157 3.41915 15.2686 3.03581 15.2686H0.482887C0.0750727 15.2686 -0.0635854 15.0076 0.0261338 14.4285L2.13046 0.913505C2.23649 0.244689 2.48118 0 2.93793 0H9.047V0.00815648ZM4.88729 7.24279H6.96714C8.26399 7.19385 9.12856 6.29666 9.21828 4.67356C9.26722 3.67033 8.59024 2.95258 7.51361 2.96074L5.5561 2.96889L4.88729 7.24279ZM20.1314 14.2409C20.3679 14.0288 20.6045 13.9228 20.5718 14.1838L20.4903 14.8118C20.4495 15.1381 20.58 15.3094 20.8818 15.3094H23.1492C23.5326 15.3094 23.7202 15.1544 23.8099 14.5671L25.2046 5.79913C25.278 5.35869 25.1638 5.14662 24.8294 5.14662H22.3336C22.1052 5.14662 21.9992 5.26897 21.9421 5.61153L21.8524 6.14985C21.8034 6.42716 21.6729 6.48426 21.5588 6.19879C21.1346 5.19556 20.058 4.74696 18.5491 4.78775C15.05 4.86115 12.701 7.51195 12.4482 10.9131C12.2524 13.5476 14.1365 15.6111 16.6242 15.6111C18.4267 15.603 19.2342 15.0728 20.1314 14.2409ZM18.231 12.8951C16.7302 12.8951 15.6781 11.6961 15.8983 10.2198C16.1185 8.75171 17.5214 7.54457 19.0303 7.54457C20.5392 7.54457 21.5832 8.74355 21.363 10.2198C21.1428 11.688 19.7399 12.8951 18.231 12.8951ZM29.6335 5.114H27.3334C26.8603 5.114 26.6646 5.46472 26.8196 5.90516L29.6743 14.2572L26.8767 18.2293C26.6401 18.5637 26.8277 18.8655 27.154 18.8655H29.7395C29.7721 18.8655 29.7966 18.8737 29.8292 18.8737C30.1066 18.8737 30.3594 18.7269 30.5062 18.4903L39.2824 5.90516C39.5515 5.52181 39.4292 5.114 38.9806 5.114H36.5337C36.1177 5.114 35.9465 5.27712 35.7099 5.62784L32.0477 10.9294L30.4165 5.61153C30.3186 5.28528 30.0821 5.114 29.6335 5.114Z" fill="#113984"/>
<path fill-rule="evenodd" clip-rule="evenodd" d="M48.4093 0.00815648C50.7175 0.00815648 52.8545 1.26423 52.5609 4.38809C52.2101 8.0992 50.22 10.1546 47.0798 10.1627H44.3393C43.9478 10.1627 43.7521 10.4808 43.6542 11.1415L43.124 14.5101C43.0425 15.0157 42.7815 15.2686 42.3981 15.2686H39.8452C39.4374 15.2686 39.2987 15.0076 39.3884 14.4285L41.5009 0.913505C41.607 0.252845 41.8516 0 42.3084 0L48.4093 0.00815648ZM44.2577 7.24279H46.3376C47.6345 7.19385 48.499 6.29666 48.5887 4.67356C48.6377 3.67033 47.9607 2.95258 46.8841 2.96074L44.9266 2.96889L44.2577 7.24279ZM59.4937 14.2409C59.7302 14.0288 59.9668 13.9228 59.9342 14.1838L59.8526 14.8118C59.8118 15.1381 59.9423 15.3094 60.2441 15.3094H62.5115C62.8949 15.3094 63.0825 15.1544 63.1722 14.5671L64.5669 5.79913C64.6403 5.35869 64.5261 5.14662 64.1917 5.14662H61.7041C61.4757 5.14662 61.3697 5.26897 61.3126 5.61153L61.2228 6.14985C61.1739 6.42716 61.0434 6.48426 60.9292 6.19879C60.5051 5.19556 59.4285 4.74696 57.9277 4.78775C54.4287 4.86115 52.0796 7.51195 51.8268 10.9131C51.631 13.5476 53.5151 15.6111 56.0028 15.6111C57.8054 15.6111 58.6128 15.081 59.5182 14.2491L59.4937 14.2409ZM57.6014 12.8951C56.1007 12.8951 55.0485 11.6961 55.2687 10.2198C55.489 8.75171 56.8919 7.54457 58.4008 7.54457C59.9015 7.54457 60.9537 8.74355 60.7335 10.2198C60.5133 11.688 59.1022 12.8951 57.6014 12.8951ZM68.0497 15.3175H65.4315C65.4233 15.3175 65.4233 15.3175 65.4152 15.3175C65.2439 15.3175 65.1052 15.1789 65.1052 15.0076C65.1052 14.9913 65.1052 14.975 65.1052 14.9668L67.4053 0.407815C67.4543 0.203907 67.6337 0.0570942 67.8376 0.0570942H70.4558C70.4639 0.0570942 70.4639 0.0570942 70.4721 0.0570942C70.6434 0.0570942 70.782 0.195751 70.782 0.367034C70.782 0.383346 70.782 0.399659 70.782 0.407815L68.4819 14.9668C68.4412 15.1707 68.2617 15.3175 68.0497 15.3175Z" fill="#009EE3"/>
</svg>
