<svg width="16" height="16" viewBox="0 0 16 16" fill="none" xmlns="http://www.w3.org/2000/svg">
<path d="M15.3164 1.3166L14.6914 0.691771C14.245 0.245467 13.6646 0 13.0396 0C12.4146 0 11.8343 0.245467 11.3878 0.691771L1.58876 10.4658C1.38787 10.6667 1.27626 10.9121 1.25394 11.1799L0.0262703 15.2859C-0.0406937 15.4867 0.0262702 15.6876 0.160198 15.8438C0.271805 15.9554 0.405733 16 0.561982 16C0.606625 16 0.673589 16 0.718231 15.9777L4.82536 14.7503C5.07089 14.7057 5.33875 14.5941 5.51732 14.4156L15.2941 4.64156C16.2316 3.70432 16.2316 2.23152 15.3164 1.3166ZM1.96823 12.5858L3.37447 13.9916L1.36555 14.5941L1.96823 12.5858ZM14.5128 3.83821L13.8878 4.46304L11.5218 2.09763L12.1468 1.4728C12.37 1.24965 12.6825 1.11576 13.0173 1.11576C13.3521 1.11576 13.6423 1.24965 13.8878 1.4728L14.5128 2.09763C15.0039 2.56625 15.0039 3.34728 14.5128 3.83821Z" fill="white"/>
</svg>
