<svg width="17" height="18" viewBox="0 0 17 18" fill="none" xmlns="http://www.w3.org/2000/svg">
<path d="M8.42619 0.714355C10.6233 0.714355 12.7256 1.55989 14.2931 3.0546V0.727687H15.4678V5.20177H10.9178V4.04663H13.6397C12.2754 2.65514 10.4033 1.8695 8.42621 1.8695C4.42808 1.8695 1.17473 5.0686 1.17473 9.00007C1.17473 12.9315 4.42808 16.1306 8.42621 16.1306C12.4243 16.1306 15.6777 12.9315 15.6777 9.00007C15.6777 8.40419 15.6032 7.81498 15.4576 7.24239L15.3967 6.99937L16.5342 6.71641L16.5951 6.95943C16.7644 7.62522 16.8524 8.31098 16.8524 9.00007C16.8524 13.5707 13.0709 17.2858 8.42621 17.2858C3.78147 17.2858 5.72205e-06 13.5674 5.72205e-06 9.00007C5.72205e-06 4.43278 3.77808 0.714355 8.42621 0.714355H8.42619Z" fill="#757575"/>
</svg>
